<svg width="32" height="32" viewBox="0 0 32 32" stroke="#000" xmlns="http://www.w3.org/2000/svg">
<g id="Social / Twitter">
<path id="Vector" d="M29.3346 5.34399C28.1739 6.14706 26.8887 6.76129 25.5286 7.16301C24.7986 6.33971 23.8284 5.75617 22.7492 5.49132C21.6701 5.22648 20.534 5.2931 19.4947 5.68217C18.4554 6.07125 17.5631 6.76402 16.9383 7.66677C16.3135 8.56952 15.9864 9.63871 16.0013 10.7297V11.9186C13.8712 11.9728 11.7604 11.5094 9.85707 10.5698C7.95372 9.63008 6.31684 8.24329 5.09221 6.53289C5.09221 6.53289 0.243726 17.233 11.1528 21.9887C8.65649 23.6507 5.6827 24.4841 2.66797 24.3665C13.5771 30.311 26.9104 24.3665 26.9104 10.6941C26.9093 10.3629 26.8768 10.0325 26.8134 9.70727C28.0505 8.51063 28.9235 6.99979 29.3346 5.34399Z" fill="none" stroke-width="2" stroke-linecap="round" stroke-linejoin="round"/>
</g>
</svg>
