<svg width="32" height="32" viewBox="0 0 32 32" stroke="#000" xmlns="http://www.w3.org/2000/svg">
<g id="Social / Youtube">
<path id="Vector" d="M30.0528 8.5587C29.8944 7.92591 29.5718 7.34613 29.1177 6.87791C28.6635 6.40969 28.0938 6.06961 27.4661 5.89203C25.1728 5.33203 15.9995 5.33203 15.9995 5.33203C15.9995 5.33203 6.82613 5.33203 4.53279 5.94536C3.90512 6.12294 3.33543 6.46302 2.88126 6.93124C2.42708 7.39946 2.10451 7.97924 1.94613 8.61203C1.52641 10.9394 1.32111 13.3004 1.33279 15.6654C1.31783 18.0481 1.52315 20.4271 1.94613 22.772C2.12074 23.3852 2.45054 23.9429 2.90365 24.3913C3.35677 24.8398 3.91789 25.1638 4.53279 25.332C6.82613 25.9454 15.9995 25.9454 15.9995 25.9454C15.9995 25.9454 25.1728 25.9454 27.4661 25.332C28.0938 25.1545 28.6635 24.8144 29.1177 24.3462C29.5718 23.8779 29.8944 23.2982 30.0528 22.6654C30.4693 20.3555 30.6746 18.0125 30.6661 15.6654C30.6811 13.2826 30.4758 10.9036 30.0528 8.5587V8.5587Z" fill="none" stroke-width="2" stroke-linecap="round" stroke-linejoin="round"/>
<path id="Vector_2" d="M13 20.0286L20.6667 15.6686L13 11.3086V20.0286Z" fill="none" stroke-width="2" stroke-linecap="round" stroke-linejoin="round"/>
</g>
</svg>
