<svg width="134" height="44" viewBox="0 0 134 44" fill="none" xmlns="http://www.w3.org/2000/svg">
<path d="M48.2736 31.3766H47.7255V27.3692H46.3491C46.3207 27.6005 46.2902 27.8446 46.2578 28.1013C46.2253 28.3537 46.1907 28.604 46.1542 28.8522C46.1217 29.1005 46.0893 29.334 46.0568 29.5528C46.0243 29.7715 45.9918 29.963 45.9593 30.127C45.9066 30.4089 45.8416 30.6487 45.7644 30.8465C45.6873 31.0442 45.5838 31.1936 45.4539 31.2946C45.328 31.3956 45.1615 31.446 44.9544 31.446C44.8854 31.446 44.8144 31.4376 44.7413 31.4208C44.6723 31.4082 44.6114 31.3913 44.5586 31.3703V30.897C44.6033 30.918 44.654 30.937 44.7108 30.9538C44.7677 30.9664 44.8286 30.9727 44.8936 30.9727C45.0154 30.9727 45.1108 30.9222 45.1798 30.8213C45.2529 30.7161 45.3097 30.5878 45.3503 30.4363C45.3909 30.2806 45.4254 30.127 45.4539 29.9756C45.4782 29.8536 45.5066 29.6916 45.5391 29.4896C45.5716 29.2835 45.6061 29.0437 45.6427 28.7702C45.6833 28.4967 45.7238 28.2001 45.7644 27.8803C45.8091 27.5564 45.8518 27.2198 45.8923 26.8706H48.2736V31.3766Z" fill="#2F2F2F"/>
<path d="M51.2745 30.0955C51.1446 30.3942 51.0127 30.6446 50.8786 30.8465C50.7486 31.0442 50.5944 31.1936 50.4157 31.2946C50.2371 31.3913 50.0097 31.4397 49.7336 31.4397C49.6199 31.4397 49.5123 31.4313 49.4108 31.4145C49.3134 31.3976 49.2241 31.3745 49.1429 31.3451V30.7834C49.2241 30.8213 49.3113 30.8528 49.4047 30.8781C49.4981 30.8991 49.5956 30.9096 49.697 30.9096C49.8473 30.9096 49.9752 30.8886 50.0807 30.8465C50.1904 30.8002 50.2858 30.7266 50.367 30.6256C50.4522 30.5247 50.5314 30.39 50.6045 30.2217L48.9297 26.8706H49.5326L50.7446 29.3508C50.7608 29.3803 50.7771 29.416 50.7933 29.4581C50.8095 29.496 50.8258 29.5359 50.842 29.578C50.8623 29.6201 50.8785 29.66 50.8905 29.6979H50.9149C50.9275 29.6684 50.9397 29.6348 50.9518 29.5969C50.9679 29.5548 50.982 29.5149 50.9942 29.477C51.0107 29.4349 51.0249 29.3992 51.037 29.3697L52.0844 26.8706H52.6631L51.2745 30.0955Z" fill="#2F2F2F"/>
<path d="M56.3253 31.3766H55.7772V29.5275C55.5416 29.6116 55.3207 29.6811 55.1133 29.7358C54.9104 29.7863 54.6831 29.8115 54.4314 29.8115C54.025 29.8115 53.7106 29.7147 53.4872 29.5212C53.2638 29.3234 53.1523 29.0395 53.1523 28.6692V26.8706H53.7004V28.5872C53.7004 28.8312 53.7612 29.0142 53.8834 29.1362C54.009 29.254 54.21 29.3129 54.4859 29.3129C54.7254 29.3129 54.941 29.2898 55.1318 29.2435C55.3226 29.1972 55.5377 29.1341 55.7772 29.0542V26.8706H56.3253V31.3766Z" fill="#2F2F2F"/>
<path d="M62.6354 31.3766H57.5078V26.8706H58.0559V30.8717H59.7915V26.8706H60.3395V30.8717H62.0815V26.8706H62.6354V31.3766Z" fill="#2F2F2F"/>
<path d="M66.2539 31.3766H63.8242V26.8706H66.2539V27.3692H64.3723V28.7765H66.1444V29.2688H64.3723V30.8781H66.2539V31.3766Z" fill="#2F2F2F"/>
<path d="M69.6367 31.3766H67.207V26.8706H69.6367V27.3692H67.7551V28.7765H69.5272V29.2688H67.7551V30.8781H69.6367V31.3766Z" fill="#2F2F2F"/>
<path d="M74.9209 26.8706V30.8717H75.4753V32.5631H74.9516V31.3766H71.9612V32.5631H71.4375V30.8717H71.7724C71.9184 30.6109 72.0566 30.3185 72.1866 29.9945C72.3204 29.6706 72.4382 29.3319 72.5399 28.9785C72.6411 28.6208 72.7244 28.2632 72.7896 27.9056C72.8543 27.548 72.8952 27.203 72.9113 26.8706H74.9209ZM73.3922 27.3818C73.3761 27.6258 73.3357 27.9014 73.2705 28.2085C73.2096 28.5156 73.1303 28.8312 73.033 29.1552C72.9395 29.4749 72.8339 29.7842 72.7166 30.0829C72.6027 30.3816 72.481 30.6446 72.3511 30.8717H74.3792V27.3818H73.3922Z" fill="#2F2F2F"/>
<path d="M79.3323 31.3766H78.7838V27.3692H77.4073C77.3791 27.6005 77.3489 27.8446 77.3163 28.1013C77.2837 28.3537 77.2491 28.604 77.2126 28.8522C77.18 29.1005 77.1479 29.334 77.1153 29.5528C77.0827 29.7715 77.0501 29.963 77.018 30.127C76.9649 30.4089 76.9002 30.6487 76.8228 30.8465C76.7459 31.0442 76.6422 31.1936 76.5123 31.2946C76.3867 31.3956 76.2197 31.446 76.0129 31.446C75.9438 31.446 75.8727 31.4376 75.7997 31.4208C75.7306 31.4082 75.6698 31.3913 75.6172 31.3703V30.897C75.6615 30.918 75.7126 30.937 75.7695 30.9538C75.826 30.9664 75.8868 30.9727 75.9521 30.9727C76.0737 30.9727 76.1691 30.9222 76.2382 30.8213C76.3112 30.7161 76.3682 30.5878 76.4086 30.4363C76.4495 30.2806 76.484 30.127 76.5123 29.9756C76.5366 29.8536 76.5653 29.6916 76.5974 29.4896C76.63 29.2835 76.6646 29.0437 76.7011 28.7702C76.7415 28.4967 76.7824 28.2001 76.8228 27.8803C76.8676 27.5564 76.9104 27.2198 76.9508 26.8706H79.3323V31.3766Z" fill="#2F2F2F"/>
<path d="M81.8283 29.5086L80.7016 31.3766H80.0625L81.2803 29.4076C81.126 29.3529 80.98 29.2772 80.8417 29.1804C80.7079 29.0837 80.5984 28.9511 80.5132 28.7828C80.4275 28.6145 80.3852 28.3978 80.3852 28.1328C80.3852 27.7247 80.521 27.4133 80.7931 27.1987C81.0651 26.98 81.4711 26.8706 82.0113 26.8706H83.2291V31.3766H82.681V29.5086H81.8283ZM82.0235 27.3565C81.7918 27.3565 81.5971 27.3839 81.4389 27.4386C81.2803 27.4933 81.1586 27.5795 81.0734 27.6973C80.9921 27.8151 80.9517 27.9687 80.9517 28.158C80.9517 28.4357 81.0408 28.6503 81.2194 28.8018C81.398 28.9532 81.674 29.0289 82.0478 29.0289H82.681V27.3565H82.0235Z" fill="#2F2F2F"/>
<path d="M87.0546 26.8706C87.4162 26.8706 87.7185 26.9064 87.9623 26.9779C88.2096 27.0494 88.3945 27.1672 88.5162 27.3313C88.6423 27.4954 88.7051 27.7141 88.7051 27.9876C88.7051 28.1643 88.6724 28.3221 88.6077 28.4609C88.5469 28.5956 88.4534 28.7092 88.3274 28.8018C88.2057 28.8901 88.0553 28.9511 87.8767 28.9847V29.0163C88.0597 29.0458 88.2242 29.1005 88.3702 29.1804C88.5206 29.2604 88.6379 29.374 88.7236 29.5212C88.8087 29.6684 88.8511 29.8599 88.8511 30.0955C88.8511 30.3689 88.7902 30.6025 88.6686 30.796C88.5469 30.9853 88.3721 31.1305 88.1448 31.2315C87.9214 31.3283 87.6537 31.3766 87.3408 31.3766H85.8125V26.8706H87.0546ZM87.1641 28.7891C87.5379 28.7891 87.7934 28.7281 87.9317 28.6061C88.0699 28.4799 88.1385 28.2948 88.1385 28.0507C88.1385 27.8025 88.0533 27.6258 87.883 27.5206C87.7165 27.4112 87.4483 27.3565 87.0789 27.3565H86.3605V28.7891H87.1641ZM86.3605 29.2625V30.897H87.2376C87.6231 30.897 87.8913 30.8191 88.0412 30.6635C88.1916 30.5078 88.2665 30.3037 88.2665 30.0513C88.2665 29.8914 88.232 29.7526 88.1629 29.6348C88.0981 29.517 87.9867 29.4265 87.828 29.3634C87.6737 29.2961 87.4625 29.2625 87.1948 29.2625H86.3605Z" fill="#2F2F2F"/>
<path d="M92.7022 26.8706V30.8717H93.2566V32.5631H92.7328V31.3766H89.7425V32.5631H89.2188V30.8717H89.5536C89.7001 30.6109 89.8379 30.3185 89.9678 29.9945C90.1017 29.6706 90.2194 29.3319 90.3212 28.9785C90.4224 28.6208 90.5056 28.2632 90.5708 27.9056C90.6356 27.548 90.6765 27.203 90.6925 26.8706H92.7022ZM91.1739 27.3818C91.1573 27.6258 91.1169 27.9014 91.0517 28.2085C90.9909 28.5156 90.912 28.8312 90.8142 29.1552C90.7212 29.4749 90.6156 29.7842 90.4978 30.0829C90.384 30.3816 90.2623 30.6446 90.1323 30.8717H92.1605V27.3818H91.1739Z" fill="#2F2F2F"/>
<path d="M97.7752 29.1179C97.7752 29.4671 97.7323 29.7847 97.6472 30.0708C97.562 30.3527 97.434 30.5967 97.2636 30.8029C97.0972 31.0091 96.8879 31.1668 96.6363 31.2762C96.3885 31.3856 96.1004 31.4403 95.7714 31.4403C95.4302 31.4403 95.1338 31.3856 94.8821 31.2762C94.6305 31.1626 94.4212 31.0049 94.2548 30.8029C94.0883 30.5967 93.9647 30.3506 93.8834 30.0645C93.8021 29.7784 93.7617 29.4608 93.7617 29.1116C93.7617 28.6488 93.8347 28.2449 93.9807 27.8999C94.1268 27.5549 94.3482 27.2856 94.6446 27.0921C94.9449 26.8985 95.3226 26.8018 95.7772 26.8018C96.2118 26.8018 96.5774 26.8985 96.8738 27.0921C97.1702 27.2814 97.3936 27.5507 97.5435 27.8999C97.6978 28.2449 97.7752 28.6508 97.7752 29.1179ZM94.3399 29.1179C94.3399 29.4966 94.391 29.8226 94.4923 30.0961C94.594 30.3695 94.7502 30.5799 94.9615 30.7272C95.1766 30.8744 95.4467 30.9481 95.7714 30.9481C96.1004 30.9481 96.3681 30.8744 96.5754 30.7272C96.7862 30.5799 96.9429 30.3695 97.0441 30.0961C97.1459 29.8226 97.1965 29.4966 97.1965 29.1179C97.1965 28.5499 97.0826 28.106 96.8553 27.7863C96.628 27.4623 96.2688 27.3003 95.7772 27.3003C95.4487 27.3003 95.1766 27.374 94.9615 27.5212C94.7502 27.6643 94.594 27.8725 94.4923 28.146C94.391 28.4153 94.3399 28.7392 94.3399 29.1179Z" fill="#2F2F2F"/>
<path d="M101.575 31.3766H100.954L99.8025 29.4202L98.6329 31.3766H98.0547L99.4978 29.0289L98.1457 26.8706H98.7551L99.8205 28.6377L100.893 26.8706H101.471L100.125 29.0163L101.575 31.3766Z" fill="#2F2F2F"/>
<path d="M105.513 31.3766H104.965V29.275H102.736V31.3766H102.188V26.8706H102.736V28.7765H104.965V26.8706H105.513V31.3766Z" fill="#2F2F2F"/>
<path d="M110.498 29.1179C110.498 29.4671 110.455 29.7847 110.37 30.0708C110.285 30.3527 110.157 30.5967 109.986 30.8029C109.82 31.0091 109.611 31.1668 109.359 31.2762C109.112 31.3856 108.823 31.4403 108.495 31.4403C108.153 31.4403 107.857 31.3856 107.605 31.2762C107.353 31.1626 107.144 31.0049 106.978 30.8029C106.811 30.5967 106.687 30.3506 106.607 30.0645C106.525 29.7784 106.484 29.4608 106.484 29.1116C106.484 28.6488 106.557 28.2449 106.704 27.8999C106.85 27.5549 107.071 27.2856 107.368 27.0921C107.668 26.8985 108.046 26.8018 108.5 26.8018C108.935 26.8018 109.3 26.8985 109.596 27.0921C109.893 27.2814 110.116 27.5507 110.267 27.8999C110.421 28.2449 110.498 28.6508 110.498 29.1179ZM107.063 29.1179C107.063 29.4966 107.114 29.8226 107.215 30.0961C107.317 30.3695 107.473 30.5799 107.684 30.7272C107.899 30.8744 108.169 30.9481 108.495 30.9481C108.823 30.9481 109.091 30.8744 109.298 30.7272C109.509 30.5799 109.666 30.3695 109.767 30.0961C109.869 29.8226 109.92 29.4966 109.92 29.1179C109.92 28.5499 109.806 28.106 109.578 27.7863C109.351 27.4623 108.991 27.3003 108.5 27.3003C108.171 27.3003 107.899 27.374 107.684 27.5212C107.473 27.6643 107.317 27.8725 107.215 28.146C107.114 28.4153 107.063 28.7392 107.063 29.1179Z" fill="#2F2F2F"/>
<path d="M112.704 26.8706C113.065 26.8706 113.367 26.9064 113.611 26.9779C113.859 27.0494 114.043 27.1672 114.165 27.3313C114.291 27.4954 114.354 27.7141 114.354 27.9876C114.354 28.1643 114.321 28.3221 114.257 28.4609C114.196 28.5956 114.102 28.7092 113.976 28.8018C113.855 28.8901 113.704 28.9511 113.526 28.9847V29.0163C113.709 29.0458 113.873 29.1005 114.019 29.1804C114.169 29.2604 114.287 29.374 114.372 29.5212C114.458 29.6684 114.5 29.8599 114.5 30.0955C114.5 30.3689 114.439 30.6025 114.317 30.796C114.196 30.9853 114.021 31.1305 113.794 31.2315C113.57 31.3283 113.302 31.3766 112.99 31.3766H111.461V26.8706H112.704ZM112.813 28.7891C113.187 28.7891 113.442 28.7281 113.581 28.6061C113.719 28.4799 113.787 28.2948 113.787 28.0507C113.787 27.8025 113.702 27.6258 113.532 27.5206C113.365 27.4112 113.097 27.3565 112.728 27.3565H112.009V28.7891H112.813ZM112.009 29.2625V30.897H112.886C113.272 30.897 113.54 30.8191 113.69 30.6635C113.84 30.5078 113.915 30.3037 113.915 30.0513C113.915 29.8914 113.881 29.7526 113.812 29.6348C113.747 29.517 113.636 29.4265 113.477 29.3634C113.323 29.2961 113.111 29.2625 112.844 29.2625H112.009Z" fill="#2F2F2F"/>
<path d="M117.852 31.3766H115.422V26.8706H117.852V27.3692H115.97V28.7765H117.742V29.2688H115.97V30.8781H117.852V31.3766Z" fill="#2F2F2F"/>
<path d="M122.13 31.3766H121.581V29.275H119.353V31.3766H118.805V26.8706H119.353V28.7765H121.581V26.8706H122.13V31.3766Z" fill="#2F2F2F"/>
<path d="M123.328 26.8706H123.84V29.3445C123.84 29.4497 123.838 29.5654 123.833 29.6916C123.833 29.8136 123.831 29.9356 123.827 30.0576C123.823 30.1796 123.817 30.289 123.809 30.3858C123.805 30.4784 123.801 30.5499 123.797 30.6004H123.821L126.215 26.8706H126.824V31.3766H126.312V28.928C126.312 28.8144 126.314 28.6924 126.319 28.5619C126.322 28.4273 126.326 28.299 126.331 28.177C126.338 28.0507 126.345 27.9392 126.349 27.8425C126.353 27.7457 126.357 27.6742 126.361 27.6279H126.337L123.937 31.3766H123.328V26.8706Z" fill="#2F2F2F"/>
<path d="M129.305 29.5086L128.179 31.3766H127.539L128.757 29.4076C128.603 29.3529 128.457 29.2772 128.319 29.1804C128.185 29.0837 128.075 28.9511 127.99 28.7828C127.905 28.6145 127.862 28.3978 127.862 28.1328C127.862 27.7247 127.998 27.4133 128.27 27.1987C128.542 26.98 128.948 26.8706 129.488 26.8706H130.706V31.3766H130.158V29.5086H129.305ZM129.5 27.3565C129.269 27.3565 129.074 27.3839 128.915 27.4386C128.757 27.4933 128.636 27.5795 128.55 27.6973C128.469 27.8151 128.428 27.9687 128.428 28.158C128.428 28.4357 128.518 28.6503 128.696 28.8018C128.875 28.9532 129.151 29.0289 129.525 29.0289H130.158V27.3565H129.5Z" fill="#2F2F2F"/>
<path d="M44.5586 24.2344V13.5234H49.8993C50.7641 13.5234 51.4773 13.6953 52.0389 14.039C52.6006 14.3717 53.0163 14.8263 53.2854 15.4028C53.5663 15.9794 53.7069 16.628 53.7069 17.3488C53.7069 18.0806 53.5497 18.7293 53.2353 19.2948C52.9204 19.8602 52.4711 20.3038 51.8871 20.6253C51.3142 20.9357 50.6293 21.091 49.8319 21.091H47.2711V24.2344H44.5586ZM47.2711 19.0286H49.2254C49.7982 19.0286 50.225 18.8734 50.5058 18.5629C50.7978 18.2525 50.9438 17.8422 50.9438 17.3322C50.9438 16.7778 50.809 16.3509 50.5395 16.0515C50.2812 15.7411 49.8712 15.5858 49.3096 15.5858H47.2711V19.0286Z" fill="#2F2F2F"/>
<path d="M54.7734 24.2344V13.5234H60.1984C61.4789 13.5234 62.4222 13.8561 63.0286 14.5214C63.6351 15.1866 63.9383 16.0792 63.9383 17.1991C63.9383 17.9198 63.7534 18.5519 63.3825 19.0952C63.0116 19.6385 62.5064 20.0432 61.8664 20.3093C62.0236 20.4312 62.1472 20.5699 62.2367 20.7251C62.338 20.8692 62.4446 21.0744 62.557 21.3405L63.8376 24.2344H61.0068L59.7939 21.5068C59.6927 21.274 59.5637 21.1076 59.4065 21.0078C59.2493 20.8969 59.0244 20.8415 58.7324 20.8415H57.4859V24.2344H54.7734ZM57.4859 18.7792H59.4907C60.0188 18.7792 60.4286 18.6516 60.7206 18.3966C61.0239 18.1305 61.1752 17.7313 61.1752 17.1991C61.1752 16.1235 60.653 15.5858 59.6085 15.5858H57.4859V18.7792Z" fill="#2F2F2F"/>
<path d="M70.1462 24.4006C68.3828 24.4006 67.0404 23.9571 66.1196 23.07C65.1987 22.183 64.7383 20.8025 64.7383 18.9286C64.7383 16.9439 65.1987 15.5191 66.1196 14.6542C67.0404 13.7894 68.3828 13.3569 70.1462 13.3569C71.9096 13.3569 73.2514 13.7894 74.1728 14.6542C75.0937 15.5191 75.5541 16.9439 75.5541 18.9286C75.5541 20.8025 75.0937 22.183 74.1728 23.07C73.2514 23.9571 71.9096 24.4006 70.1462 24.4006ZM70.1462 22.122C71.0559 22.122 71.7188 21.867 72.1339 21.3569C72.5608 20.8358 72.7745 20.0264 72.7745 18.9286C72.7745 17.7311 72.5608 16.8885 72.1339 16.4006C71.7188 15.9016 71.0559 15.6521 70.1462 15.6521C69.2253 15.6521 68.5512 15.9016 68.1244 16.4006C67.7087 16.8885 67.5009 17.7311 67.5009 18.9286C67.5009 20.0264 67.7087 20.8358 68.1244 21.3569C68.5512 21.867 69.2253 22.122 70.1462 22.122Z" fill="#2F2F2F"/>
<path d="M80.5547 24.2344V13.5234H83.2336L86.1816 19.4611L89.1131 13.5234H91.775V24.2344H89.0625V18.0806L86.9229 22.4049H85.4233L83.2672 18.0806V24.2344H80.5547Z" fill="#2F2F2F"/>
<path d="M93.4883 24.2344V13.5234H101.491V15.5858H96.2008V17.8311H100.868V19.9267H96.2008V22.1721H101.491V24.2344H93.4883Z" fill="#2F2F2F"/>
<path d="M102.785 24.2344V13.5234H108.513C109.603 13.5234 110.423 13.7785 110.973 14.2885C111.535 14.7985 111.816 15.5193 111.816 16.4507C111.816 17.0162 111.703 17.493 111.478 17.881C111.265 18.258 110.979 18.5519 110.619 18.7625C111.113 18.9399 111.501 19.2005 111.782 19.5442C112.062 19.8879 112.203 20.4035 112.203 21.091C112.203 22.1111 111.9 22.8928 111.293 23.4361C110.687 23.9683 109.816 24.2344 108.682 24.2344H102.785ZM105.498 17.881H107.705C108.177 17.881 108.519 17.7757 108.732 17.565C108.946 17.3543 109.053 17.0605 109.053 16.6835C109.053 16.2733 108.946 15.9684 108.732 15.7688C108.519 15.5581 108.132 15.4528 107.57 15.4528H105.498V17.881ZM105.498 22.3218H107.975C108.469 22.3218 108.834 22.222 109.069 22.0224C109.316 21.8228 109.44 21.468 109.44 20.9579C109.44 20.5477 109.322 20.2428 109.086 20.0432C108.851 19.8325 108.446 19.7272 107.873 19.7272H105.498V22.3218Z" fill="#2F2F2F"/>
<path d="M113.574 24.2344V13.5234H121.577V15.5858H116.287V17.8311H120.953V19.9267H116.287V22.1721H121.577V24.2344H113.574Z" fill="#2F2F2F"/>
<path d="M122.871 24.2344V13.5234H125.584V22.1721H130.705V24.2344H122.871Z" fill="#2F2F2F"/>
<path d="M18.999 3.63071C19.9048 3.11268 21.0224 3.11268 21.9282 3.63071L35.7996 11.5638C36.7007 12.0791 37.2553 13.0287 37.2553 14.0562V29.9427C37.2553 30.9702 36.7007 31.9198 35.7996 32.4351L21.9282 40.3682C21.0224 40.8862 19.9048 40.8862 18.999 40.3682L5.12756 32.4351C4.22653 31.9198 3.67188 30.9702 3.67188 29.9427V14.0562C3.67188 13.0287 4.22653 12.0791 5.12756 11.5638L18.999 3.63071Z" stroke="#FF7A11" stroke-width="5"/>
<path d="M14.8672 31.6031V14.3174H23.1073C24.4417 14.3174 25.5421 14.5947 26.4085 15.1495C27.275 15.6863 27.9162 16.4199 28.3321 17.3504C28.7653 18.2809 28.982 19.3277 28.982 20.4908C28.982 21.6719 28.7393 22.7187 28.2541 23.6313C27.7689 24.5439 27.0757 25.2596 26.1746 25.7786C25.2908 26.2796 24.2337 26.5301 23.0033 26.5301H19.0522V31.6031H14.8672ZM19.0522 23.2018H22.0675C22.9514 23.2018 23.6099 22.9513 24.0431 22.4503C24.4937 21.9492 24.719 21.2871 24.719 20.464C24.719 19.5693 24.511 18.8804 24.0951 18.3972C23.6965 17.8962 23.064 17.6457 22.1975 17.6457H19.0522V23.2018Z" fill="#FF7A11"/>
</svg>
