<svg width="96" height="96" viewBox="0 0 96 96" fill="none" xmlns="http://www.w3.org/2000/svg">
<g clip-path="url(#clip0_2691_190553)">
<path d="M87.5158 33.8833H94.5938M17.2256 84.2569H26.4825V69.5175M26.4825 69.5175H1.40625M26.4825 69.5175L33.8833 62.1167M1.40625 69.5175V84.2569H10.6631M1.40625 69.5175L8.48025 62.4435M26.4825 84.2561L33.6471 77.0916M33.8833 69.5175H58.9596V84.2561H33.8833V69.5175ZM33.8833 69.5175L41.1677 62.2331" stroke="#FE7100" stroke-width="3" stroke-miterlimit="10" stroke-linecap="round" stroke-linejoin="round"/>
<path d="M58.9594 69.5175L94.5938 33.8832V48.6225L73.7325 69.4857M69.0919 74.1263L58.9594 84.2569M1.40625 47.3775H26.4825M1.40625 47.3775V62.1169H26.4825V47.3775M1.40625 47.3775L10.3031 38.4807M26.4825 47.3775L62.1169 11.7432M14.9437 33.84L37.0406 11.7432H62.1169M62.1169 11.7432V18.4838M26.4825 62.1167L33.6471 54.9522M58.9596 47.3781H33.8833V62.1167H58.9596M58.9596 47.3781V62.1167M58.9596 47.3781L94.5938 11.7439V26.4825L58.9596 62.1167M54.15 27.1125L69.5175 11.7432H94.5938M49.5094 31.7532L33.8831 47.3775M1.74262 61.7803L16.0027 47.5202M1.93388 83.7285L16.0027 69.6597M34.3153 61.6847L48.4787 47.5214M34.4109 83.7285L48.5019 69.6375" stroke="#FE7100" stroke-width="3" stroke-miterlimit="10" stroke-linecap="round" stroke-linejoin="round"/>
</g>
<defs>
<clipPath id="clip0_2691_190553">
<rect width="96" height="96" fill="white"/>
</clipPath>
</defs>
</svg>
