<svg width="96" height="96" viewBox="0 0 96 96" fill="none" xmlns="http://www.w3.org/2000/svg">
<path d="M87 96H15C14.6022 96 14.2206 95.842 13.9393 95.5607C13.658 95.2794 13.5 94.8978 13.5 94.5V1.5C13.5 1.10218 13.658 0.720644 13.9393 0.43934C14.2206 0.158035 14.6022 0 15 0L87 0C87.3978 0 87.7794 0.158035 88.0607 0.43934C88.342 0.720644 88.5 1.10218 88.5 1.5V94.5C88.5 94.8978 88.342 95.2794 88.0607 95.5607C87.7794 95.842 87.3978 96 87 96ZM16.5 93H85.5V3H16.5V93Z" fill="#FE7100"/>
<path d="M15 96H9C8.60218 96 8.22064 95.842 7.93934 95.5607C7.65804 95.2794 7.5 94.8978 7.5 94.5V1.5C7.5 1.10218 7.65804 0.720644 7.93934 0.43934C8.22064 0.158035 8.60218 0 9 0L15 0V3H10.5V93H15V96ZM86.7375 49.476C81.708 48.5865 72.8655 45.3045 69.132 39.9165C67.4201 37.2747 66.0235 34.4413 64.971 31.4745C63.7506 28.5484 62.7786 25.5247 62.0655 22.4355C61.1761 18.1392 61.1639 13.7076 62.0295 9.4065C62.1465 8.835 62.2785 8.2605 62.4105 7.6845C63.0001 5.76803 63.208 3.75451 63.0225 1.758L65.9775 1.242C66.2472 3.6331 66.0282 6.05406 65.334 8.358C65.208 8.9085 65.0805 9.4575 64.9695 10.008C64.1849 13.91 64.1956 17.9302 65.001 21.828C65.6835 24.7521 66.6076 27.6144 67.764 30.3855C68.7361 33.134 70.0226 35.7609 71.598 38.214C74.3385 42.1665 81.714 45.5445 87.2625 46.5285L86.7375 49.476Z" fill="#FE7100"/>
<path d="M86.9276 34.5001C83.293 34.2476 79.9053 32.5699 77.5016 29.8321C74.4296 26.4976 72.8906 21.6601 72.9266 15.4576C72.9401 13.2766 73.0856 11.1586 73.2266 9.11108C73.4051 6.53858 73.5716 4.11008 73.4996 1.54208L76.4996 1.46108C76.5746 4.17158 76.3946 6.78758 76.2191 9.31808C76.0826 11.3191 75.9386 13.3876 75.9191 15.4681C75.8876 20.8891 77.1596 25.0351 79.7006 27.7921C81.5729 29.9511 84.2219 31.2837 87.0716 31.5001L86.9276 34.5001ZM86.0786 82.1836C84.1066 80.7788 81.8675 79.7935 79.4996 79.2886C78.5653 79.0292 77.6371 78.7486 76.7156 78.4471C74.0216 77.6143 71.2808 76.9411 68.5076 76.4311C63.0281 75.3091 57.3626 74.1511 52.7681 70.6216C49.7282 68.0889 47.2078 64.9914 45.3461 61.5001C42.7853 57.2947 40.9378 52.6945 39.8786 47.8861C38.1641 39.2581 40.1126 30.4861 42.0026 23.8201C42.6026 21.7201 43.2341 19.6321 43.8686 17.5516C45.6374 12.2292 47.0239 6.78741 48.0176 1.26758L50.9816 1.73258C49.9614 7.38996 48.5434 12.9683 46.7381 18.4261C46.1096 20.4856 45.4781 22.5496 44.8886 24.6346C43.0886 30.9826 41.2316 39.2971 42.8201 47.2996C43.8171 51.7861 45.5478 56.0773 47.9426 60.0001C49.6135 63.1505 51.8734 65.9511 54.5996 68.2501C58.6496 71.3566 63.7301 72.3976 69.1136 73.5001C72.003 74.033 74.858 74.7377 77.6636 75.6106C78.5906 75.9196 79.4726 76.1701 80.3231 76.4146C83.0633 77.0138 85.6494 78.1753 87.9176 79.8256L86.0786 82.1836ZM57.2906 95.3896C54.7931 91.9981 51.1016 89.8756 47.1941 87.6286L46.4111 87.1786C40.6496 83.8501 34.1591 79.5841 29.7866 73.2001C26.2363 67.6526 24.0279 61.354 23.3366 54.8041C23.1716 53.6386 23.0366 52.4671 22.8986 51.2941C22.6347 48.1893 22.0905 45.1148 21.2726 42.1081C20.4761 39.5071 18.5201 34.8466 14.3516 32.8576L15.6446 30.1576C19.4996 31.9861 22.5206 35.9206 24.1496 41.2261C25.0212 44.4054 25.6026 47.6572 25.8866 50.9416C26.0216 52.0921 26.1551 53.2396 26.3156 54.3826C26.9467 60.4735 28.9854 66.3343 32.2706 71.5021C36.3026 77.3941 42.4436 81.4186 47.9186 84.5806L48.6971 85.0306C52.7021 87.3331 56.8436 89.7136 59.7161 93.6121L57.2906 95.3896Z" fill="#FE7100"/>
<path d="M86.033 67.1474C83.6675 65.1509 80.261 64.5494 77.255 64.0184C76.655 63.9119 76.055 63.8129 75.443 63.7184C72.5475 63.3677 69.7092 62.6458 66.998 61.5704C63.0267 59.6953 59.7379 56.6298 57.5885 52.7999C55.523 49.0869 54.1842 45.0142 53.6435 40.7999L56.6105 40.3604C57.0958 44.2004 58.3074 47.9129 60.1805 51.2999C62.0134 54.5833 64.8221 57.2154 68.2175 58.8314C70.6947 59.8007 73.2857 60.449 75.9275 60.7604C76.5455 60.8609 77.162 60.9629 77.777 61.0709C80.987 61.6379 84.9845 62.3429 87.968 64.8584L86.033 67.1474ZM52.8905 36.9869C52.2106 33.5436 52.3581 29.9881 53.321 26.6129L56.204 27.4394C55.3729 30.3565 55.2454 33.4291 55.832 36.4049L52.8905 36.9869ZM19.907 25.8434C19.151 25.8492 18.3965 25.7727 17.657 25.6154C16.1525 25.3693 14.7874 24.5885 13.8125 23.4164L16.1885 21.5834C16.7394 22.193 17.4911 22.5843 18.3065 22.6859C19.327 22.8701 20.37 22.8944 21.398 22.7579C23.2357 22.6235 25.0328 22.1511 26.699 21.3644C28.2419 20.6347 29.5028 19.4191 30.2885 17.9039C30.9302 16.3617 31.1876 14.6867 31.0385 13.0229C31.0085 12.3262 30.965 11.63 30.908 10.9349C30.7902 9.6996 30.7401 8.45874 30.758 7.21793C30.735 6.24132 30.981 5.27719 31.469 4.43093C31.6728 4.12411 31.9059 3.83778 32.165 3.57593C32.2824 3.45807 32.3921 3.33281 32.4935 3.20093C33.0935 2.36993 33.1085 2.07443 33.1055 2.02493L35.8835 0.919434C36.0738 1.61779 36.0858 2.35275 35.9183 3.05693C35.7508 3.76112 35.4093 4.41201 34.925 4.94993C34.7485 5.18911 34.5556 5.41566 34.3475 5.62793C34.2179 5.7561 34.0995 5.89511 33.9935 6.04343C33.8143 6.44102 33.7316 6.87531 33.752 7.31093C33.737 8.44512 33.7836 9.57929 33.8915 10.7084C33.947 11.4419 34.0025 12.1754 34.0295 12.9089C34.1931 15.058 33.8403 17.215 33.0005 19.1999C31.9286 21.316 30.1888 23.0195 28.0505 24.0464C26.056 25.0017 23.9015 25.5784 21.6965 25.7474C21.167 25.7999 20.558 25.8434 19.907 25.8434ZM28.676 95.2049C28.1247 94.0234 27.77 92.7598 27.626 91.4639L27.5495 91.0034C26.901 87.0393 24.7208 83.4887 21.479 81.1169C19.5103 79.8518 17.3822 78.8541 15.1505 78.1499L14.4785 77.9024L15.5285 75.0884L16.1915 75.3344C18.672 76.1256 21.0351 77.2461 23.2175 78.6659C27.1043 81.4992 29.7219 85.7465 30.506 90.4919L30.587 90.9704C30.6921 91.9431 30.945 92.8941 31.337 93.7904L28.676 95.2049Z" fill="#FE7100"/>
</svg>
