<svg width="96" height="96" viewBox="0 0 96 96" fill="none" xmlns="http://www.w3.org/2000/svg">
<g clip-path="url(#clip0_2691_190526)">
<path d="M44.4844 89.3306C51.9787 87.8606 58.935 84.4462 64.7512 79.3443" stroke="#FE7100" stroke-width="3" stroke-miterlimit="10" stroke-linecap="round" stroke-linejoin="round"/>
<path d="M27.1937 89.3306C26.7062 88.8356 26.4062 88.1568 26.4062 87.4068C26.4062 85.89 27.6362 84.66 29.1531 84.66H35.9781C57.0455 84.66 74.1849 67.5208 74.1849 46.4532C74.1849 25.3839 57.0455 8.24456 35.9781 8.24456C34.4594 8.24456 33.2312 7.01456 33.2312 5.49788C33.2312 3.98101 34.4594 2.75083 35.9781 2.75083C47.6499 2.75083 58.6243 7.29581 66.8799 15.5516C75.1336 23.8051 79.6786 34.7797 79.6786 46.4532C79.6786 57.1107 75.8874 67.1831 68.9461 75.1389" stroke="#FE7100" stroke-width="3" stroke-miterlimit="10" stroke-linecap="round" stroke-linejoin="round"/>
<path d="M21.4726 32.4901C17.219 40.4194 14.5117 49.8169 14.5117 56.0261C14.5117 68.6119 25.6301 78.8145 38.2156 78.8145C50.8013 78.8145 61.9196 68.6119 61.9196 56.0261C61.9196 43.4406 50.8013 17.7521 38.2156 17.7521C33.2358 17.7521 28.4864 21.7756 24.5639 27.4164" stroke="#FE7100" stroke-width="3" stroke-miterlimit="10" stroke-linecap="round" stroke-linejoin="round"/>
<path d="M32.8754 62.7019C32.0757 60.4538 31.4975 57.6979 31.2266 54.6503" stroke="#FE7100" stroke-width="3" stroke-miterlimit="10" stroke-linecap="round" stroke-linejoin="round"/>
<path d="M45.2075 54.6467C44.9392 57.6654 44.3695 60.3978 43.582 62.6345" stroke="#FE7100" stroke-width="3" stroke-miterlimit="10" stroke-linecap="round" stroke-linejoin="round"/>
<path d="M24.6602 66.9814C26.4095 64.507 31.877 62.7018 38.3512 62.7018C44.7085 62.7018 50.0956 64.4427 51.9456 66.8479" stroke="#FE7100" stroke-width="3" stroke-miterlimit="10" stroke-linecap="round" stroke-linejoin="round"/>
<path d="M38.2185 73.3213C33.5554 73.3213 28.8925 71.4371 25.425 68.1523C21.9316 64.8426 20.0078 60.5363 20.0078 56.0263C20.0078 50.5169 22.6658 41.7867 26.4715 34.7963C30.2918 27.7795 34.9026 23.2456 38.2185 23.2456C41.5344 23.2456 46.1452 27.7795 49.9652 34.7963C53.771 41.7867 56.429 50.5169 56.429 56.0263C56.429 60.5363 54.5053 64.8426 51.012 68.1523C47.5445 71.4371 42.8816 73.3213 38.2185 73.3213Z" stroke="#FE7100" stroke-width="3" stroke-miterlimit="10" stroke-linecap="round" stroke-linejoin="round"/>
<path d="M20.6992 60.2302C22.5858 52.302 29.7131 46.4066 38.2169 46.4066C46.7191 46.4066 53.8465 52.3007 55.7329 60.2274" stroke="#FE7100" stroke-width="3" stroke-miterlimit="10" stroke-linecap="round" stroke-linejoin="round"/>
<path d="M28.0859 32.3595V48.9375" stroke="#FE7100" stroke-width="3" stroke-miterlimit="10" stroke-linecap="round" stroke-linejoin="round"/>
<path d="M35.0078 24.8892V46.0315" stroke="#FE7100" stroke-width="3" stroke-miterlimit="10" stroke-linecap="round" stroke-linejoin="round"/>
<path d="M41.9297 25.0767V46.219" stroke="#FE7100" stroke-width="3" stroke-miterlimit="10" stroke-linecap="round" stroke-linejoin="round"/>
<path d="M48.8516 33.133V49.3125" stroke="#FE7100" stroke-width="3" stroke-miterlimit="10" stroke-linecap="round" stroke-linejoin="round"/>
<path d="M21.7773 46.713C25.9303 43.4357 31.745 41.1241 38.1811 41.1241C44.683 41.1241 50.5506 43.483 54.7114 46.8137" stroke="#FE7100" stroke-width="3" stroke-miterlimit="10" stroke-linecap="round" stroke-linejoin="round"/>
<path d="M25.9375 36.429C29.4767 34.6259 33.6769 33.4936 38.1818 33.4936C42.8014 33.4936 47.1009 34.6842 50.6955 36.5684" stroke="#FE7100" stroke-width="3" stroke-miterlimit="10" stroke-linecap="round" stroke-linejoin="round"/>
<path d="M36.5304 62.7901C35.6341 62.9875 33.0491 63.8251 32.5156 66.9814" stroke="#FE7100" stroke-width="3" stroke-miterlimit="10" stroke-linecap="round" stroke-linejoin="round"/>
<path d="M40.2266 62.79C41.1217 62.987 43.709 63.824 44.2424 66.9817" stroke="#FE7100" stroke-width="3" stroke-miterlimit="10" stroke-linecap="round" stroke-linejoin="round"/>
<path d="M41.1282 14.9714C41.1282 16.5073 39.8832 17.7524 38.3472 17.7524C36.8114 17.7524 35.5664 16.5073 35.5664 14.9714C35.5664 13.4356 36.8114 12.1906 38.3472 12.1906C39.8832 12.1906 41.1282 13.4356 41.1282 14.9714Z" stroke="#FE7100" stroke-width="3" stroke-miterlimit="10" stroke-linecap="round" stroke-linejoin="round"/>
<path d="M38.3477 13.1716V1.4066" stroke="#FE7100" stroke-width="3" stroke-miterlimit="10" stroke-linecap="round" stroke-linejoin="round"/>
<path d="M30.8792 89.3316H14.3222C12.2997 89.3316 10.6602 90.9713 10.6602 92.9938C10.6601 93.2039 10.7015 93.412 10.7819 93.6061C10.8623 93.8002 10.9801 93.9766 11.1286 94.1251C11.2772 94.2737 11.4536 94.3916 11.6477 94.472C11.8418 94.5524 12.0498 94.5938 12.2599 94.5938H79.2002C79.4103 94.5938 79.6184 94.5524 79.8125 94.472C80.0066 94.3916 80.183 94.2737 80.3315 94.1251C80.4801 93.9766 80.5979 93.8002 80.6783 93.6061C80.7587 93.412 80.8001 93.2039 80.8001 92.9938C80.8001 90.9713 79.1605 89.3316 77.1379 89.3316H36.8212" stroke="#FE7100" stroke-width="3" stroke-miterlimit="10" stroke-linecap="round" stroke-linejoin="round"/>
<path d="M85.3425 44.0535H72.9805" stroke="#FE7100" stroke-width="3" stroke-miterlimit="10" stroke-linecap="round" stroke-linejoin="round"/>
<path d="M83.5898 42.2142V45.8037" stroke="#FE7100" stroke-width="3" stroke-miterlimit="10" stroke-linecap="round" stroke-linejoin="round"/>
</g>
<defs>
<clipPath id="clip0_2691_190526">
<rect width="96" height="96" fill="white"/>
</clipPath>
</defs>
</svg>
