<svg width="96" height="96" viewBox="0 0 96 96" fill="none" xmlns="http://www.w3.org/2000/svg">
<path d="M90 55.5H82.5V28.5C84.1545 28.5 85.5 27.1545 85.5 25.5V22.5C85.5 20.8455 84.1545 19.5 82.5 19.5V18C82.5 8.9025 75.0975 1.5 66 1.5C56.9025 1.5 49.5 8.9025 49.5 18V37.5C47.8455 37.5 46.5 38.8455 46.5 40.5V43.5H43.5V40.5C43.5 38.8455 42.1545 37.5 40.5 37.5H37.5C35.8455 37.5 34.5 38.8455 34.5 40.5V43.5H31.5V46.5H34.5V49.5C34.5 51.1545 35.8455 52.5 37.5 52.5H40.5C42.1545 52.5 43.5 51.1545 43.5 49.5V46.5H46.5V55.5H6C3.519 55.5 1.5 57.519 1.5 60V90C1.5 92.481 3.519 94.5 6 94.5H90C92.481 94.5 94.5 92.481 94.5 90V60C94.5 57.519 92.481 55.5 90 55.5ZM37.5 40.5H40.5V43.5H37.5V40.5ZM40.5015 49.5H37.5V46.5H40.5015V49.5ZM82.5 70.5V64.5H85.5V79.5H73.3485C73.0004 77.8074 72.0795 76.2865 70.741 75.1936C69.4024 74.1006 67.7281 73.5025 66 73.5H60C59.6138 73.4827 59.2491 73.3171 58.9819 73.0377C58.7147 72.7583 58.5656 72.3866 58.5656 72C58.5656 71.6134 58.7147 71.2417 58.9819 70.9623C59.2491 70.6829 59.6138 70.5173 60 70.5H72C74.481 70.5 76.5 68.481 76.5 66V28.5H79.5V70.5H82.5ZM58.5 37.5V18C58.5 13.8645 61.8645 10.5 66 10.5C70.1355 10.5 73.5 13.8645 73.5 18V19.5C71.8455 19.5 70.5 20.8455 70.5 22.5V25.5C70.5 27.1545 71.8455 28.5 73.5 28.5V55.5H61.5V40.5C61.5 38.8455 60.1545 37.5 58.5 37.5ZM60 76.5H66C67.953 76.5 69.603 77.7585 70.224 79.5H40.5V64.5H73.5V66C73.5 66.8265 72.828 67.5 72 67.5H60C57.519 67.5 55.5 69.519 55.5 72C55.5 74.481 57.519 76.5 60 76.5ZM52.5 18C52.5 10.557 58.5555 4.5 66 4.5C73.4445 4.5 79.5 10.557 79.5 18V22.5H82.5V25.5H73.5V22.5H76.5V18C76.5 12.21 71.7885 7.5 66 7.5C60.2115 7.5 55.5 12.21 55.5 18V37.5H52.5V18ZM49.5 40.5H58.5V55.5H49.5V40.5ZM91.5 90C91.5 90.8265 90.828 91.5 90 91.5H6C5.172 91.5 4.5 90.8265 4.5 90V60C4.5 59.1735 5.172 58.5 6 58.5H73.5V61.5H40.5C38.8455 61.5 37.5 62.8455 37.5 64.5V79.5C37.5 81.1545 38.8455 82.5 40.5 82.5H85.5C87.1545 82.5 88.5 81.1545 88.5 79.5V64.5C88.5 62.8455 87.1545 61.5 85.5 61.5H82.5V58.5H90C90.828 58.5 91.5 59.1735 91.5 60V90Z" fill="#FE7100"/>
<path d="M7.5 85.5H90V88.5H7.5V85.5ZM10.5 82.5H31.5C33.1545 82.5 34.5 81.1545 34.5 79.5V76.5C34.5 74.8455 33.1545 73.5 31.5 73.5H10.5C8.8455 73.5 7.5 74.8455 7.5 76.5V79.5C7.5 81.1545 8.8455 82.5 10.5 82.5ZM10.5 76.5H31.5L31.5015 79.5H10.5V76.5ZM10.5 70.5H31.5C33.1545 70.5 34.5 69.1545 34.5 67.5V64.5C34.5 62.8455 33.1545 61.5 31.5 61.5H10.5C8.8455 61.5 7.5 62.8455 7.5 64.5V67.5C7.5 69.1545 8.8455 70.5 10.5 70.5ZM10.5 64.5H31.5L31.5015 67.5H10.5V64.5Z" fill="#FE7100"/>
</svg>
