<svg width="96" height="96" viewBox="0 0 96 96" fill="none" xmlns="http://www.w3.org/2000/svg">
<g clip-path="url(#clip0_2691_190514)">
<path d="M94.125 17.4204H87.2678V10.5825C87.2678 9.54712 86.4281 8.7075 85.3928 8.7075H78.5407V1.875C78.5407 0.855 77.6856 0 76.6657 0H1.875C0.839625 0 0 0.839625 0 1.875V76.4972C0 77.5168 0.853312 78.3743 1.875 78.3743H8.727V85.2067C8.727 86.2421 9.56662 87.0817 10.602 87.0817H17.4592V93.9197C17.4592 94.9551 18.2989 95.7947 19.3342 95.7947H94.125C95.1604 95.7947 96 94.9551 96 93.9197V19.2954C96 18.2601 95.1604 17.4204 94.125 17.4204ZM31.3357 74.6244L44.5378 61.4526C46.9367 59.0593 49.3352 56.6653 51.7341 54.2721L61.545 64.0612L50.9582 74.6244H31.3357ZM6.40894 74.6244L26.8048 54.2739L36.6159 64.0592L26.0263 74.6244H6.40894ZM74.7907 50.8449L64.1974 61.4102L54.3887 51.6233C61.1895 44.838 67.9905 38.0526 74.7907 31.266V50.8449ZM39.2704 61.4106L29.4591 51.6253L51.7361 29.3977L61.5429 39.1869C57.8338 42.888 54.1249 46.5892 50.4156 50.2901C50.4126 50.2931 50.4094 50.2956 50.4064 50.2984C50.4038 50.301 50.4015 50.304 50.3989 50.3068C47.5622 53.1369 44.7259 55.9678 41.8892 58.7978L39.2704 61.4106ZM3.75 31.2671L11.6829 39.1858L3.75 47.1028V31.2671ZM26.8018 29.3951L36.6156 39.1871L25.5302 50.2477C25.5126 50.2639 25.4942 50.2787 25.4771 50.2956L14.3394 61.4107L4.52944 51.6227L15.6624 40.5143C15.6711 40.5056 15.6784 40.4963 15.6868 40.4874L26.8018 29.3951ZM40.5947 15.6379L51.7337 4.52381L61.545 14.3134L50.463 25.3708C50.4444 25.3881 50.4249 25.4036 50.4067 25.4216C50.3901 25.4383 50.3756 25.4565 50.3599 25.4738L39.2704 36.5385L29.4564 26.7465L40.5669 15.663C40.5759 15.6542 40.5857 15.6469 40.5947 15.6379ZM11.6839 64.0588L3.75 71.9786V56.1426L11.6839 64.0588ZM74.7907 25.9684C71.2601 29.4923 67.7286 33.015 64.1974 36.5385L54.3908 26.7493L74.7907 6.39469V25.9684ZM64.1996 11.6646L56.2676 3.75H72.1318L64.1996 11.6646ZM25.4775 25.4186L25.4771 25.419L14.3372 36.5368L4.52944 26.7465L26.802 4.52344L36.6139 14.3094L25.4775 25.4186ZM74.7907 56.1426V74.6244H56.2676L74.7907 56.1426ZM47.1992 3.75L39.2689 11.661L31.3369 3.75H47.1992ZM22.2679 3.75L3.75 22.2266V3.75H22.2679ZM92.25 92.0449H21.2092V87.0819H43.9419C44.9773 87.0819 45.8169 86.2423 45.8169 85.2069C45.8169 84.1716 44.9773 83.3319 43.9419 83.3319H12.477V78.3744H76.6657C77.7011 78.3744 78.5407 77.5348 78.5407 76.4994V12.4575H83.5178V83.3319H60.7851C59.7497 83.3319 58.9101 84.1716 58.9101 85.2069C58.9101 86.2423 59.7497 87.0819 60.7851 87.0819H85.3928C86.4281 87.0819 87.2678 86.2423 87.2678 85.2069V21.1704H92.25V92.0449Z" fill="#FE7100"/>
<path d="M52.3672 83.332C51.3318 83.332 50.4922 84.1717 50.4922 85.207C50.4922 86.2424 51.3318 87.082 52.3672 87.082H52.3724C53.4078 87.082 54.2446 86.2424 54.2446 85.207C54.2446 84.1717 53.4028 83.332 52.3672 83.332Z" fill="#FE7100"/>
</g>
<defs>
<clipPath id="clip0_2691_190514">
<rect width="96" height="96" fill="white"/>
</clipPath>
</defs>
</svg>
