<svg width="96" height="96" viewBox="0 0 96 96" fill="none" xmlns="http://www.w3.org/2000/svg">
<g clip-path="url(#clip0_2691_190559)">
<path d="M44.7999 6.39994C44.3757 6.40009 43.9688 6.5687 43.6688 6.86871C43.3688 7.16873 43.2001 7.57559 43.2 7.99988V14.4C43.2 15.2831 43.9168 15.9999 44.7999 15.9999C45.6831 15.9999 46.3999 15.2831 46.3999 14.4V8.00006C46.4001 7.11675 45.6833 6.39994 44.7999 6.39994ZM89.6001 6.39994C89.1758 6.40009 88.7689 6.5687 88.4689 6.86871C88.1689 7.16873 88.0003 7.57559 88.0001 7.99988V14.4C88.0001 15.2831 88.7169 15.9999 89.6001 15.9999C90.4832 15.9999 91.2 15.2831 91.2 14.4V8.00006C91.2 7.11675 90.4832 6.39994 89.6001 6.39994ZM33.6 0H1.59994C1.17565 0.00014909 0.76879 0.168761 0.468775 0.468775C0.168761 0.76879 0.00014909 1.17565 0 1.59994L0 94.3999C0 95.2832 0.716812 96 1.59994 96H33.6C34.0243 95.9998 34.4311 95.8312 34.7312 95.5312C35.0312 95.2312 35.1998 94.8243 35.1999 94.4001V1.59994C35.1998 1.17565 35.0312 0.76879 34.7312 0.468775C34.4311 0.168761 34.0243 0.00014909 33.6 0ZM32.0001 92.7999H3.20006V3.20006H32.0001V92.7999Z" fill="#FE7100"/>
<path d="M94.3993 67.2H33.5992C33.1749 67.2001 32.7681 67.3688 32.4681 67.6688C32.168 67.9688 31.9994 68.3757 31.9993 68.7999V94.3999C31.9994 94.8242 32.168 95.231 32.4681 95.531C32.7681 95.8311 33.1749 95.9997 33.5992 95.9998H94.3993C94.8236 95.9997 95.2304 95.8311 95.5304 95.531C95.8305 95.231 95.9991 94.8242 95.9992 94.3999V68.7999C95.9991 68.3757 95.8305 67.9688 95.5304 67.6688C95.2304 67.3688 94.8236 67.2001 94.3993 67.2ZM92.7992 92.7999H35.1992V70.4001H92.7992V92.7999ZM94.3993 0H33.5992C33.1749 0.00014909 32.7681 0.168761 32.4681 0.468775C32.168 0.76879 31.9994 1.17565 31.9993 1.59994V7.99988C31.9994 8.42416 32.168 8.83102 32.4681 9.13104C32.7681 9.43105 33.1749 9.59966 33.5992 9.59981H94.3993C94.8236 9.59966 95.2304 9.43105 95.5304 9.13104C95.8305 8.83102 95.9991 8.42416 95.9992 7.99988V1.59994C95.9991 1.17565 95.8305 0.76879 95.5304 0.468775C95.2304 0.168761 94.8236 0.00014909 94.3993 0ZM92.7992 6.39994H35.1992V3.20006H92.7992V6.39994ZM25.5992 46.4001H20.7992C19.916 46.4001 19.1992 47.1169 19.1992 48C19.1992 48.8831 19.916 49.5999 20.7992 49.5999H25.5992C26.4823 49.5999 27.1991 48.8831 27.1991 48C27.1991 47.1169 26.4825 46.4001 25.5992 46.4001Z" fill="#FE7100"/>
<path d="M20.7992 46.4001C20.3749 46.4003 19.968 46.5689 19.668 46.8689C19.368 47.1689 19.1994 47.5758 19.1992 48.0001V52.8001C19.1992 53.6832 19.916 54.4 20.7992 54.4C21.6823 54.4 22.3991 53.6832 22.3991 52.8001V48.0001C22.3993 47.117 21.6825 46.4001 20.7992 46.4001ZM68.7992 78.4H59.1992C58.316 78.4 57.5992 79.1168 57.5992 80C57.5992 80.8831 58.316 81.5999 59.1992 81.5999H68.7992C69.6823 81.5999 70.3991 80.8831 70.3991 80C70.3991 79.1168 69.6825 78.4 68.7992 78.4Z" fill="#FE7100"/>
<path d="M64 78.3999C63.5757 78.4 63.1689 78.5687 62.8688 78.8687C62.5688 79.1687 62.4002 79.5755 62.4001 79.9998V83.1999C62.4001 84.083 63.1169 84.7998 64 84.7998C64.8831 84.7998 65.5999 84.083 65.5999 83.1999V79.9998C65.6001 79.1167 64.8833 78.3999 64 78.3999ZM54.4 6.3999C53.9757 6.40005 53.5689 6.56866 53.2688 6.86868C52.9688 7.16869 52.8002 7.57556 52.8001 7.99984V17.5998C52.8001 18.483 53.5169 19.1998 54.4 19.1998C55.2831 19.1998 55.9999 18.483 55.9999 17.5998V7.99984C56.0001 7.11671 55.2833 6.3999 54.4 6.3999ZM54.4 22.4C45.7872 22.4 40 25.6143 40 30.4001V33.6C40.0001 34.0242 40.1688 34.4311 40.4688 34.7311C40.7688 35.0311 41.1757 35.1998 41.5999 35.1999H44.8V49.5999C44.8002 50.0242 44.9688 50.431 45.2688 50.7311C45.5688 51.0311 45.9757 51.1997 46.3999 51.1998H62.4001C62.8243 51.1997 63.2312 51.0311 63.5312 50.7311C63.8312 50.431 63.9999 50.0242 64 49.5999V35.1999H67.2001C67.6243 35.1998 68.0312 35.0311 68.3312 34.7311C68.6312 34.4311 68.7999 34.0242 68.8 33.6V30.3999C68.8 25.6143 63.0128 22.4 54.4 22.4ZM65.6001 32H62.4001C61.9758 32.0002 61.5689 32.1688 61.2689 32.4688C60.9689 32.7688 60.8003 33.1757 60.8001 33.6V48H48.0001V33.6C47.9999 33.1757 47.8313 32.7688 47.5313 32.4688C47.2313 32.1688 46.8244 32.0002 46.4001 32H43.2001V30.4001C43.2001 28.0738 47.1248 25.6001 54.4 25.6001C61.6752 25.6001 65.5999 28.0738 65.5999 30.4001V32H65.6001Z" fill="#FE7100"/>
<path d="M65.6017 22.4001C63.4689 22.4001 61.4688 22.6017 59.6593 22.9985C59.303 23.0768 58.9841 23.2744 58.7555 23.5587C58.527 23.843 58.4023 24.1969 58.4023 24.5616C58.4023 24.9264 58.527 25.2803 58.7555 25.5646C58.9841 25.8489 59.303 26.0465 59.6593 26.1248C63.2688 26.9151 65.6017 28.5936 65.6017 30.4V32H62.4016C61.9774 32.0001 61.5705 32.1687 61.2705 32.4687C60.9705 32.7687 60.8019 33.1756 60.8017 33.5999V49.5998C60.8019 50.0241 60.9705 50.431 61.2705 50.731C61.5705 51.031 61.9774 51.1996 62.4016 51.1998H73.6016C74.0259 51.1996 74.4327 51.031 74.7327 50.731C75.0328 50.431 75.2014 50.0241 75.2015 49.5998V35.1998H78.4016C78.8259 35.1997 79.2327 35.0311 79.5327 34.7311C79.8328 34.431 80.0014 34.0242 80.0015 33.5999V30.3998C80.0017 25.6145 74.2145 22.4001 65.6017 22.4001ZM76.8016 32.0001H73.6016C73.1773 32.0003 72.7704 32.1689 72.4704 32.4689C72.1704 32.7689 72.0018 33.1758 72.0016 33.6001V48.0001H64.0016V35.2H67.2016C67.6259 35.1999 68.0328 35.0313 68.3328 34.7312C68.6328 34.4312 68.8014 34.0244 68.8016 33.6001V30.4C68.8016 28.5601 67.9136 26.9168 66.2928 25.6081C73.1248 25.7585 76.8016 28.1472 76.8016 30.4V32.0001Z" fill="#FE7100"/>
<path d="M76.8008 22.4C74.668 22.4 72.6679 22.6016 70.8583 22.9983C70.5021 23.0766 70.1832 23.2743 69.9546 23.5586C69.726 23.8429 69.6014 24.1967 69.6014 24.5615C69.6014 24.9263 69.726 25.2802 69.9546 25.5644C70.1832 25.8487 70.5021 26.0464 70.8583 26.1247C74.4679 26.915 76.8008 28.5935 76.8008 30.3999V31.9998H73.6007C73.1764 32 72.7696 32.1686 72.4696 32.4686C72.1695 32.7686 72.0009 33.1755 72.0008 33.5998V49.5997C72.0009 50.024 72.1695 50.4309 72.4696 50.7309C72.7696 51.0309 73.1764 51.1995 73.6007 51.1997H84.8007C85.2249 51.1995 85.6318 51.0309 85.9318 50.7309C86.2318 50.4309 86.4004 50.024 86.4006 49.5997V35.1997H89.6007C90.0249 35.1996 90.4318 35.031 90.7318 34.7309C91.0318 34.4309 91.2004 34.0241 91.2006 33.5998V30.3997C91.2008 25.6143 85.4136 22.4 76.8008 22.4ZM88.0007 32H84.8007C84.3764 32.0002 83.9695 32.1688 83.6695 32.4688C83.3695 32.7688 83.2009 33.1757 83.2007 33.6V48H75.2007V35.1999H78.4007C78.825 35.1998 79.2319 35.0311 79.5319 34.7311C79.8319 34.4311 80.0005 34.0243 80.0007 33.6V30.3999C80.0007 28.56 79.1127 26.9167 77.4919 25.608C84.3238 25.7583 88.0007 28.1471 88.0007 30.3999V32ZM54.4007 15.9999C53.9764 16.0001 53.5696 16.1687 53.2696 16.4687C52.9695 16.7687 52.8009 17.1756 52.8008 17.5998C52.8009 18.0241 52.9695 18.431 53.2696 18.731C53.5696 19.031 53.9764 19.1996 54.4007 19.1998C55.2823 19.1998 56.0007 19.9181 56.0007 20.7997C56.0007 21.6813 55.2823 22.3997 54.4007 22.3997C53.5176 22.3997 52.8008 23.1165 52.8008 23.9996C52.8008 24.8827 53.5176 25.5995 54.4007 25.5995C57.0471 25.5995 59.2007 23.4459 59.2007 20.7995C59.2007 18.1532 57.0471 15.9999 54.4007 15.9999ZM67.2008 6.3999C66.7765 6.40005 66.3696 6.56866 66.0696 6.86868C65.7696 7.16869 65.601 7.57556 65.6008 7.99984V17.5998C65.6008 18.483 66.3177 19.1998 67.2008 19.1998C68.0839 19.1998 68.8007 18.483 68.8007 17.5998V7.99984C68.8006 7.57556 68.632 7.16869 68.3319 6.86868C68.0319 6.56866 67.6251 6.40005 67.2008 6.3999Z" fill="#FE7100"/>
<path d="M67.2015 15.9999C66.7772 16.0001 66.3703 16.1687 66.0703 16.4687C65.7703 16.7687 65.6017 17.1756 65.6016 17.5998C65.6017 18.0241 65.7703 18.431 66.0703 18.731C66.3703 19.031 66.7772 19.1996 67.2015 19.1998C68.0831 19.1998 68.8014 19.9181 68.8014 20.7997C68.8014 21.6813 68.0831 22.3997 67.2015 22.3997C66.3184 22.3997 65.6016 23.1165 65.6016 23.9996C65.6016 24.8827 66.3184 25.5995 67.2015 25.5995C69.8479 25.5995 72.0015 23.4459 72.0015 20.7995C72.0015 18.1532 69.8479 15.9999 67.2015 15.9999ZM80.0016 6.3999C79.5773 6.40005 79.1704 6.56866 78.8704 6.86868C78.5704 7.16869 78.4018 7.57556 78.4016 7.99984V17.5998C78.4016 18.483 79.1184 19.1998 80.0016 19.1998C80.8847 19.1998 81.6015 18.483 81.6015 17.5998V7.99984C81.6014 7.57556 81.4327 7.16869 81.1327 6.86868C80.8327 6.56866 80.4258 6.40005 80.0016 6.3999Z" fill="#FE7100"/>
<path d="M80 16C79.5757 16.0001 79.1688 16.1688 78.8688 16.4688C78.5688 16.7688 78.4002 17.1757 78.4001 17.5999C78.4002 18.0242 78.5688 18.4311 78.8688 18.7311C79.1688 19.0311 79.5757 19.1997 80 19.1999C80.8816 19.1999 81.5999 19.9182 81.5999 20.7998C81.5999 21.6814 80.8816 22.3997 80 22.3997C79.1169 22.3997 78.4001 23.1166 78.4001 23.9997C78.4001 24.8828 79.1169 25.5996 80 25.5996C82.6464 25.5996 84.8 23.446 84.8 20.7996C84.8 18.1532 82.6464 16 80 16ZM91.1999 60.8001H33.5999C33.1757 60.8003 32.7688 60.9689 32.4688 61.2689C32.1688 61.5689 32.0001 61.9758 32 62.4001V68.8C32.0001 69.2243 32.1688 69.6311 32.4688 69.9312C32.7688 70.2312 33.1757 70.3998 33.5999 70.3999H91.1999C91.6242 70.3998 92.0311 70.2312 92.3311 69.9312C92.6311 69.6311 92.7997 69.2243 92.7999 68.8V62.4001C92.7997 61.9758 92.6311 61.5689 92.3311 61.2689C92.0311 60.9689 91.6242 60.8003 91.1999 60.8001ZM89.6 67.2001H35.1999V64H89.5998V67.2001H89.6ZM87.9999 73.6H39.9999C39.5756 73.6001 39.1687 73.7688 38.8687 74.0688C38.5687 74.3688 38.4001 74.7757 38.3999 75.1999V88C38.4001 88.4243 38.5687 88.8311 38.8687 89.1312C39.1687 89.4312 39.5756 89.5998 39.9999 89.5999H87.9999C88.4242 89.5998 88.831 89.4312 89.131 89.1312C89.431 88.8311 89.5997 88.4243 89.5998 88V75.1999C89.6 74.3168 88.8832 73.6 87.9999 73.6ZM86.3999 86.4001H41.6V76.8001H86.3999V86.4001Z" fill="#FE7100"/>
</g>
<defs>
<clipPath id="clip0_2691_190559">
<rect width="96" height="96" fill="white"/>
</clipPath>
</defs>
</svg>
