<svg width="96" height="96" viewBox="0 0 96 96" fill="none" xmlns="http://www.w3.org/2000/svg">
<path d="M90.852 16.1528H63.3698V4.3125C63.3699 4.14011 63.336 3.9694 63.27 3.81011C63.2041 3.65083 63.1074 3.5061 62.9855 3.3842C62.8637 3.26231 62.7189 3.16563 62.5596 3.09971C62.4004 3.03378 62.2296 2.9999 62.0573 3H33.1073C32.9349 2.9999 32.7641 3.03378 32.6049 3.09971C32.4456 3.16563 32.3009 3.26231 32.179 3.3842C32.0571 3.5061 31.9604 3.65083 31.8945 3.81011C31.8285 3.9694 31.7947 4.14011 31.7948 4.3125V9.576H4.3125C3.9644 9.576 3.63056 9.71428 3.38442 9.96042C3.13828 10.2066 3 10.5404 3 10.8885V84.276C3 84.6241 3.13828 84.9579 3.38442 85.2041C3.63056 85.4502 3.9644 85.5885 4.3125 85.5885H33.1073C33.4554 85.5885 33.7892 85.4502 34.0353 85.2041C34.2815 84.9579 34.4198 84.6241 34.4198 84.276V79.0118H60.7448V90.852C60.7447 91.0244 60.7785 91.1951 60.8445 91.3544C60.9104 91.5137 61.0071 91.6584 61.129 91.7803C61.2509 91.9022 61.3956 91.9989 61.5549 92.0648C61.7142 92.1307 61.8849 92.1646 62.0573 92.1645H90.852C91.0244 92.1646 91.1951 92.1307 91.3544 92.0648C91.5137 91.9989 91.6584 91.9022 91.7803 91.7803C91.9022 91.6584 91.9989 91.5137 92.0648 91.3544C92.1307 91.1951 92.1646 91.0244 92.1645 90.852V17.4653C92.1645 17.1172 92.0262 16.7833 91.7801 16.5372C91.5339 16.291 91.2001 16.1528 90.852 16.1528ZM31.7948 82.9635H15.4823V71.1225C15.4823 70.7744 15.344 70.4406 15.0978 70.1944C14.8517 69.9483 14.5178 69.81 14.1698 69.81C13.8217 69.81 13.4878 69.9483 13.2417 70.1944C12.9955 70.4406 12.8573 70.7744 12.8573 71.1225V82.9635H5.625V12.201H12.8573V20.5433C12.8573 20.8913 12.9955 21.2252 13.2417 21.4713C13.4878 21.7175 13.8217 21.8558 14.1698 21.8558C14.5178 21.8558 14.8517 21.7175 15.0978 21.4713C15.344 21.2252 15.4823 20.8913 15.4823 20.5433V12.201H22.2713V50.6273C22.2713 50.9753 22.4095 51.3092 22.6557 51.5553C22.9018 51.8015 23.2357 51.9398 23.5838 51.9398C23.9318 51.9398 24.2657 51.8015 24.5118 51.5553C24.758 51.3092 24.8963 50.9753 24.8963 50.6273V12.201H31.7963V82.9635H31.7948ZM34.4198 5.625H41.2703V20.5433C41.2703 20.8913 41.4085 21.2252 41.6547 21.4713C41.9008 21.7175 42.2347 21.8558 42.5828 21.8558C42.9309 21.8558 43.2647 21.7175 43.5108 21.4713C43.757 21.2252 43.8953 20.8913 43.8953 20.5433V5.625H51.2693V33.7268C51.2693 34.0749 51.4075 34.4087 51.6537 34.6548C51.8998 34.901 52.2337 35.0393 52.5818 35.0393C52.9299 35.0393 53.2637 34.901 53.5098 34.6548C53.756 34.4087 53.8943 34.0749 53.8943 33.7268V5.625H60.7448V76.3868H43.8953V49.0823C43.8953 48.7342 43.757 48.4003 43.5108 48.1542C43.2647 47.908 42.9309 47.7698 42.5828 47.7698C42.2347 47.7698 41.9008 47.908 41.6547 48.1542C41.4085 48.4003 41.2703 48.7342 41.2703 49.0823V76.3823H34.4198V5.625ZM89.5395 89.5395H73.2323V77.6993C73.2323 77.3512 73.094 77.0173 72.8478 76.7712C72.6017 76.525 72.2679 76.3868 71.9198 76.3868C71.5717 76.3868 71.2378 76.525 70.9917 76.7712C70.7455 77.0173 70.6073 77.3512 70.6073 77.6993V89.5395H63.3698V18.7778H80.0198V35.376C80.0198 35.7241 80.158 36.0579 80.4042 36.3041C80.6503 36.5502 80.9842 36.6885 81.3323 36.6885C81.6804 36.6885 82.0142 36.5502 82.2603 36.3041C82.5065 36.0579 82.6448 35.7241 82.6448 35.376V18.7778H89.5448L89.5395 89.5395Z" fill="#FE7100"/>
<path d="M42.9988 37.8045C43.3469 37.8045 43.6807 37.6662 43.9269 37.42C44.173 37.1739 44.3113 36.8401 44.3113 36.492V29.9152C44.3113 29.5671 44.173 29.2333 43.9269 28.9871C43.6807 28.741 43.3469 28.6027 42.9988 28.6027C42.6507 28.6027 42.3168 28.741 42.0707 28.9871C41.8246 29.2333 41.6863 29.5671 41.6863 29.9152V36.492C41.6863 36.8401 41.8246 37.1739 42.0707 37.42C42.3168 37.6662 42.6507 37.8045 42.9988 37.8045ZM52.9978 55.8892C53.3459 55.8892 53.6797 55.7509 53.9259 55.5048C54.172 55.2586 54.3103 54.9248 54.3103 54.5767V41.7262C54.3103 41.3781 54.172 41.0443 53.9259 40.7981C53.6797 40.552 53.3459 40.4137 52.9978 40.4137C52.6497 40.4137 52.3158 40.552 52.0697 40.7981C51.8236 41.0443 51.6853 41.3781 51.6853 41.7262V54.5767C51.6853 54.9248 51.8236 55.2586 52.0697 55.5048C52.3158 55.7509 52.6497 55.8892 52.9978 55.8892ZM52.9978 69.9592C53.1702 69.9593 53.3409 69.9254 53.5002 69.8595C53.6595 69.7936 53.8042 69.6969 53.9261 69.575C54.048 69.4531 54.1446 69.3084 54.2106 69.1491C54.2765 68.9898 54.3104 68.8191 54.3103 68.6467V63.507C54.3103 63.1589 54.172 62.825 53.9259 62.5789C53.6797 62.3327 53.3459 62.1945 52.9978 62.1945C52.6497 62.1945 52.3158 62.3327 52.0697 62.5789C51.8236 62.825 51.6853 63.1589 51.6853 63.507V68.6467C51.6852 68.8191 51.7191 68.9898 51.785 69.1491C51.8509 69.3084 51.9476 69.4531 52.0695 69.575C52.1914 69.6969 52.3361 69.7936 52.4954 69.8595C52.6547 69.9254 52.8254 69.9593 52.9978 69.9592ZM72.332 25.731C71.984 25.7312 71.6503 25.8695 71.4042 26.1156C71.1581 26.3617 71.0197 26.6954 71.0195 27.0435V54.5767C71.0195 54.9248 71.1578 55.2586 71.404 55.5048C71.6501 55.7509 71.9839 55.8892 72.332 55.8892C72.6801 55.8892 73.014 55.7509 73.2601 55.5048C73.5062 55.2586 73.6445 54.9248 73.6445 54.5767V27.0435C73.6445 26.6954 73.5062 26.3615 73.2601 26.1154C73.014 25.8692 72.6801 25.731 72.332 25.731ZM81.7483 44.925C81.4002 44.925 81.0663 45.0632 80.8202 45.3094C80.5741 45.5555 80.4358 45.8894 80.4358 46.2375V82.6065C80.4358 82.9546 80.5741 83.2884 80.8202 83.5345C81.0663 83.7807 81.4002 83.919 81.7483 83.919C82.0964 83.919 82.4302 83.7807 82.6764 83.5345C82.9225 83.2884 83.0608 82.9546 83.0608 82.6065V46.2397C83.0611 46.0672 83.0274 45.8962 82.9615 45.7367C82.8957 45.5772 82.7991 45.4323 82.6772 45.3102C82.5553 45.1881 82.4105 45.0912 82.2511 45.0251C82.0917 44.959 81.9208 44.925 81.7483 44.925ZM72.332 65.775C71.984 65.7752 71.6503 65.9135 71.4042 66.1596C71.1581 66.4057 71.0197 66.7394 71.0195 67.0875V70.6192C71.0195 70.9673 71.1578 71.3011 71.404 71.5473C71.6501 71.7934 71.9839 71.9317 72.332 71.9317C72.6801 71.9317 73.014 71.7934 73.2601 71.5473C73.5062 71.3011 73.6445 70.9673 73.6445 70.6192V67.0875C73.6445 66.7394 73.5062 66.4055 73.2601 66.1594C73.014 65.9132 72.6801 65.775 72.332 65.775ZM14.582 30.4732C14.234 30.4734 13.9003 30.6118 13.6542 30.8579C13.4081 31.1039 13.2697 31.4377 13.2695 31.7857V58.554C13.2695 58.9021 13.4078 59.2359 13.654 59.482C13.9001 59.7282 14.2339 59.8665 14.582 59.8665C14.9301 59.8665 15.264 59.7282 15.5101 59.482C15.7562 59.2359 15.8945 58.9021 15.8945 58.554V31.7857C15.8945 31.4376 15.7562 31.1038 15.5101 30.8576C15.264 30.6115 14.9301 30.4732 14.582 30.4732ZM23.9983 63.1117C23.6502 63.1117 23.3163 63.25 23.0702 63.4961C22.8241 63.7423 22.6858 64.0761 22.6858 64.4242V71.001C22.6858 71.3491 22.8241 71.6829 23.0702 71.929C23.3163 72.1752 23.6502 72.3135 23.9983 72.3135C24.3464 72.3135 24.6802 72.1752 24.9264 71.929C25.1725 71.6829 25.3108 71.3491 25.3108 71.001V64.425C25.3109 64.2525 25.277 64.0818 25.2111 63.9225C25.1452 63.7631 25.0485 63.6184 24.9266 63.4964C24.8047 63.3744 24.66 63.2777 24.5007 63.2117C24.3414 63.1457 24.1707 63.1117 23.9983 63.1117Z" fill="#FE7100"/>
</svg>
