<svg width="96" height="96" viewBox="0 0 96 96" fill="none" xmlns="http://www.w3.org/2000/svg">
<path d="M73.5 52.5C73.8978 52.5 74.2794 52.342 74.5607 52.0607C74.842 51.7794 75 51.3978 75 51V48C75 47.6022 74.842 47.2206 74.5607 46.9393C74.2794 46.658 73.8978 46.5 73.5 46.5C73.1022 46.5 72.7206 46.658 72.4393 46.9393C72.158 47.2206 72 47.6022 72 48V51C72 51.3978 72.158 51.7794 72.4393 52.0607C72.7206 52.342 73.1022 52.5 73.5 52.5ZM73.5 61.5C73.1022 61.5 72.7206 61.658 72.4393 61.9393C72.158 62.2206 72 62.6022 72 63V66C72 66.3978 72.158 66.7794 72.4393 67.0607C72.7206 67.342 73.1022 67.5 73.5 67.5C73.8978 67.5 74.2794 67.342 74.5607 67.0607C74.842 66.7794 75 66.3978 75 66V63C75 62.6022 74.842 62.2206 74.5607 61.9393C74.2794 61.658 73.8978 61.5 73.5 61.5Z" fill="#FE7100"/>
<path d="M68.5611 88.0603C69.1662 88.3505 69.8289 88.5007 70.5 88.5H88.5C89.6931 88.4987 90.8369 88.0241 91.6805 87.1805C92.5241 86.3369 92.9987 85.1931 93 84V45C92.9987 43.8069 92.5241 42.6631 91.6805 41.8195C90.8369 40.9759 89.6931 40.5013 88.5 40.5H70.5C69.3069 40.5013 68.1631 40.9759 67.3195 41.8195C66.4759 42.6631 66.0013 43.8069 66 45V52.5H63V49.5C63 49.1022 62.842 48.7206 62.5607 48.4393C62.2794 48.158 61.8978 48 61.5 48H52.5C52.1022 48 51.7206 48.158 51.4393 48.4393C51.158 48.7206 51 49.1022 51 49.5V52.5H48V49.5C48.0002 49.3027 47.9614 49.1073 47.8858 48.9251C47.8102 48.7428 47.6992 48.5774 47.5594 48.4382C47.8496 47.8333 48.0002 47.1709 48 46.5H51C51.3978 46.5 51.7794 46.342 52.0607 46.0607C52.342 45.7794 52.5 45.3978 52.5 45C52.5 44.6022 52.342 44.2206 52.0607 43.9393C51.7794 43.658 51.3978 43.5 51 43.5H48C48 43.1022 47.842 42.7206 47.5607 42.4393C47.2794 42.158 46.8978 42 46.5 42H37.5C37.1022 42 36.7206 42.158 36.4393 42.4393C36.158 42.7206 36 43.1022 36 43.5V46.4968C35.9993 47.1688 36.1499 47.8323 36.4406 48.4382C36.3008 48.5774 36.1898 48.7428 36.1142 48.9251C36.0386 49.1073 35.9998 49.3027 36 49.5V52.5H28.5V49.5H30C30.3978 49.5 30.7794 49.342 31.0607 49.0607C31.342 48.7794 31.5 48.3978 31.5 48C31.5 47.6022 31.342 47.2206 31.0607 46.9393C30.7794 46.658 30.3978 46.5 30 46.5H28.5V45C28.5 43.8065 28.0259 42.6619 27.182 41.818C26.3381 40.9741 25.1935 40.5 24 40.5C22.8065 40.5 21.6619 40.9741 20.818 41.818C19.9741 42.6619 19.5 43.8065 19.5 45V48C19.5 48.3978 19.658 48.7794 19.9393 49.0607C20.2206 49.342 20.6022 49.5 21 49.5C21.3978 49.5 21.7794 49.342 22.0607 49.0607C22.342 48.7794 22.5 48.3978 22.5 48V45C22.5 44.6022 22.658 44.2206 22.9393 43.9393C23.2206 43.658 23.6022 43.5 24 43.5C24.3978 43.5 24.7794 43.658 25.0607 43.9393C25.342 44.2206 25.5 44.6022 25.5 45V52.5H13.5V49.5C13.5 48.3065 13.0259 47.1619 12.182 46.318C11.3381 45.4741 10.1935 45 9 45C7.80653 45 6.66193 45.4741 5.81802 46.318C4.97411 47.1619 4.5 48.3065 4.5 49.5V52.5C4.10218 52.5 3.72064 52.658 3.43934 52.9393C3.15804 53.2206 3 53.6022 3 54V87C3 87.3978 3.15804 87.7794 3.43934 88.0607C3.72064 88.342 4.10218 88.5 4.5 88.5H67.5C67.6971 88.5003 67.8923 88.4616 68.0744 88.3861C68.2565 88.3106 68.4219 88.1999 68.5611 88.0603ZM88.5 85.5H70.5C70.1023 85.4996 69.721 85.3414 69.4398 85.0602C69.1586 84.779 69.0005 84.3977 69 84V58.5H90V84C89.9995 84.3977 89.8414 84.779 89.5602 85.0602C89.279 85.3414 88.8977 85.4996 88.5 85.5ZM69 45C69.0005 44.6023 69.1586 44.221 69.4398 43.9398C69.721 43.6586 70.1023 43.5004 70.5 43.5H88.5C88.8977 43.5004 89.279 43.6586 89.5602 43.9398C89.8414 44.221 89.9995 44.6023 90 45V55.5H69V45ZM60 55.5V61.5H39V55.5H60ZM39 64.5H60V79.5H39V64.5ZM54 51H60V52.5H54V51ZM39 52.5V51H45V52.5H39ZM39 45H45V46.4968C44.9996 46.8953 44.841 47.2774 44.5592 47.5592C44.2774 47.841 43.8953 47.9996 43.4968 48H40.5032C40.1047 47.9996 39.7226 47.841 39.4408 47.5592C39.159 47.2774 39.0004 46.8953 39 46.4968V45ZM7.5 49.5C7.5 49.1022 7.65804 48.7206 7.93934 48.4393C8.22064 48.158 8.60218 48 9 48C9.39782 48 9.77936 48.158 10.0607 48.4393C10.342 48.7206 10.5 49.1022 10.5 49.5V52.5H7.5V49.5ZM66 85.5H6V55.5H36V81C36 81.3978 36.158 81.7794 36.4393 82.0607C36.7206 82.342 37.1022 82.5 37.5 82.5H61.5C61.8978 82.5 62.2794 82.342 62.5607 82.0607C62.842 81.7794 63 81.3978 63 81V55.5H66V85.5Z" fill="#FE7100"/>
<path d="M52.5 67.5H46.5C46.1022 67.5 45.7206 67.658 45.4393 67.9393C45.158 68.2206 45 68.6022 45 69C45 69.3978 45.158 69.7794 45.4393 70.0607C45.7206 70.342 46.1022 70.5 46.5 70.5H52.5C52.8978 70.5 53.2794 70.342 53.5607 70.0607C53.842 69.7794 54 69.3978 54 69C54 68.6022 53.842 68.2206 53.5607 67.9393C53.2794 67.658 52.8978 67.5 52.5 67.5ZM31.5 70.5H10.5C10.1022 70.5 9.72064 70.658 9.43934 70.9393C9.15804 71.2206 9 71.6022 9 72V81C9 81.3978 9.15804 81.7794 9.43934 82.0607C9.72064 82.342 10.1022 82.5 10.5 82.5H31.5C31.8978 82.5 32.2794 82.342 32.5607 82.0607C32.842 81.7794 33 81.3978 33 81V72C33 71.6022 32.842 71.2206 32.5607 70.9393C32.2794 70.658 31.8978 70.5 31.5 70.5ZM30 79.5H12V73.5H30V79.5ZM31.5 58.5H10.5C10.1022 58.5 9.72064 58.658 9.43934 58.9393C9.15804 59.2206 9 59.6022 9 60V66C9 66.3978 9.15804 66.7794 9.43934 67.0607C9.72064 67.342 10.1022 67.5 10.5 67.5H31.5C31.8978 67.5 32.2794 67.342 32.5607 67.0607C32.842 66.7794 33 66.3978 33 66V60C33 59.6022 32.842 59.2206 32.5607 58.9393C32.2794 58.658 31.8978 58.5 31.5 58.5ZM30 64.5H12V61.5H30V64.5ZM60 19.5C60.3978 19.5 60.7794 19.342 61.0607 19.0607C61.342 18.7794 61.5 18.3978 61.5 18V15C61.5 14.6022 61.342 14.2206 61.0607 13.9393C60.7794 13.658 60.3978 13.5 60 13.5C59.6022 13.5 59.2206 13.658 58.9393 13.9393C58.658 14.2206 58.5 14.6022 58.5 15V18C58.5 18.3978 58.658 18.7794 58.9393 19.0607C59.2206 19.342 59.6022 19.5 60 19.5ZM78 19.5C78.3978 19.5 78.7794 19.342 79.0607 19.0607C79.342 18.7794 79.5 18.3978 79.5 18V15C79.5 14.6022 79.342 14.2206 79.0607 13.9393C78.7794 13.658 78.3978 13.5 78 13.5C77.6022 13.5 77.2206 13.658 76.9393 13.9393C76.658 14.2206 76.5 14.6022 76.5 15V18C76.5 18.3978 76.658 18.7794 76.9393 19.0607C77.2206 19.342 77.6022 19.5 78 19.5Z" fill="#FE7100"/>
<path d="M4.5 16.5H18V22.5H16.5C16.2215 22.5 15.9484 22.5776 15.7115 22.724C15.4745 22.8705 15.283 23.08 15.1584 23.3291L10.6584 32.3291C10.5441 32.5578 10.4901 32.8119 10.5016 33.0674C10.513 33.3228 10.5896 33.571 10.724 33.7885C10.8585 34.0061 11.0462 34.1856 11.2696 34.3101C11.4929 34.4346 11.7443 34.5 12 34.5H27C27.2557 34.5 27.5071 34.4346 27.7304 34.3101C27.9538 34.1856 28.1415 34.0061 28.276 33.7885C28.4104 33.571 28.487 33.3228 28.4984 33.0674C28.5099 32.8119 28.4559 32.5578 28.3416 32.3291L23.8416 23.3291C23.717 23.08 23.5255 22.8705 23.2885 22.724C23.0516 22.5776 22.7785 22.5 22.5 22.5H21V16.5H40.5V22.5H39C38.7215 22.5 38.4484 22.5776 38.2115 22.724C37.9745 22.8705 37.783 23.08 37.6584 23.3291L33.1584 32.3291C33.0441 32.5578 32.9901 32.8119 33.0016 33.0674C33.013 33.3228 33.0896 33.571 33.224 33.7885C33.3585 34.0061 33.5462 34.1856 33.7696 34.3101C33.9929 34.4346 34.2443 34.5 34.5 34.5H49.5C49.7557 34.5 50.0071 34.4346 50.2304 34.3101C50.4538 34.1856 50.6415 34.0061 50.776 33.7885C50.9104 33.571 50.987 33.3228 50.9984 33.0674C51.0099 32.8119 50.9559 32.5578 50.8416 32.3291L46.3416 23.3291C46.217 23.08 46.0255 22.8705 45.7885 22.724C45.5516 22.5776 45.2785 22.5 45 22.5H43.5V16.5H54V28.5C54 28.8978 54.158 29.2794 54.4393 29.5607C54.7206 29.842 55.1022 30 55.5 30H91.5C91.8978 30 92.2794 29.842 92.5607 29.5607C92.842 29.2794 93 28.8978 93 28.5V9C93 8.60218 92.842 8.22064 92.5607 7.93934C92.2794 7.65804 91.8978 7.5 91.5 7.5H4.5C4.10218 7.5 3.72064 7.65804 3.43934 7.93934C3.15804 8.22064 3 8.60218 3 9V15C3 15.3978 3.15804 15.7794 3.43934 16.0607C3.72064 16.342 4.10218 16.5 4.5 16.5ZM24.573 31.5H14.427L17.427 25.5H21.573L24.573 31.5ZM47.073 31.5H36.927L39.927 25.5H44.073L47.073 31.5ZM57 10.5H70.5V22.5H57V10.5ZM90 27H57V25.5H90V27ZM90 22.5H73.5V10.5H90V22.5ZM6 10.5H54V13.5H6V10.5Z" fill="#FE7100"/>
<path d="M43.5 60C44.3284 60 45 59.3284 45 58.5C45 57.6716 44.3284 57 43.5 57C42.6716 57 42 57.6716 42 58.5C42 59.3284 42.6716 60 43.5 60Z" fill="#FE7100"/>
<path d="M49.5 60C50.3284 60 51 59.3284 51 58.5C51 57.6716 50.3284 57 49.5 57C48.6716 57 48 57.6716 48 58.5C48 59.3284 48.6716 60 49.5 60Z" fill="#FE7100"/>
<path d="M55.5 60C56.3284 60 57 59.3284 57 58.5C57 57.6716 56.3284 57 55.5 57C54.6716 57 54 57.6716 54 58.5C54 59.3284 54.6716 60 55.5 60Z" fill="#FE7100"/>
</svg>
