<svg width="16" height="16" viewBox="0 0 16 16" fill="#000" xmlns="http://www.w3.org/2000/svg">
<g id="mi:call">
<path id="Vector" d="M2.55538 2.66659H5.54872L6.51338 5.07859L4.96338 6.11192C4.8721 6.17282 4.79727 6.25531 4.74552 6.35206C4.69377 6.44882 4.6667 6.55686 4.66672 6.66659C4.66872 6.72925 4.66672 6.66725 4.66672 6.66725V6.68125C4.66711 6.71106 4.66844 6.74086 4.67072 6.77059C4.67472 6.82525 4.68138 6.89925 4.69405 6.99059C4.72005 7.17059 4.77005 7.41859 4.86738 7.71059C5.06338 8.29725 5.44738 9.05659 6.19538 9.80459C6.94338 10.5526 7.70271 10.9366 8.28871 11.1326C8.58138 11.2299 8.82872 11.2793 9.01005 11.3059C9.1124 11.3202 9.21543 11.3291 9.31872 11.3326L9.32738 11.3333H9.33272C9.33272 11.3333 9.40738 11.3293 9.33338 11.3333C9.45716 11.3332 9.57847 11.2987 9.68373 11.2336C9.789 11.1684 9.87405 11.0753 9.92938 10.9646L10.376 10.0713L13.3334 10.5646V13.4446C11.926 13.6479 8.12471 13.8486 5.13805 10.8619C2.15138 7.87525 2.35138 4.07325 2.55538 2.66659ZM6.04872 6.99059L7.25338 6.18792C7.50788 6.01817 7.69626 5.76606 7.78693 5.4739C7.87761 5.18173 7.86505 4.86726 7.75138 4.58325L6.78672 2.17125C6.68772 1.92386 6.51687 1.7118 6.29621 1.56243C6.07554 1.41306 5.81518 1.33323 5.54872 1.33325H2.52072C1.91472 1.33325 1.34472 1.75392 1.24538 2.41125C1.01872 3.90592 0.711382 8.32059 4.19538 11.8046C7.67938 15.2886 12.094 14.9806 13.5887 14.7546C14.246 14.6546 14.6667 14.0853 14.6667 13.4793V10.5646C14.6668 10.249 14.5548 9.94355 14.3508 9.7027C14.1469 9.46185 13.864 9.30117 13.5527 9.24925L10.5954 8.75659C10.3141 8.70964 10.0252 8.7541 9.77106 8.88345C9.51692 9.0128 9.31095 9.22022 9.18338 9.47525L8.95271 9.93725C8.87114 9.91717 8.79041 9.89381 8.71072 9.86725C8.29738 9.72992 7.72338 9.44725 7.13805 8.86192C6.55272 8.27659 6.27005 7.70259 6.13272 7.28859C6.09992 7.19072 6.07211 7.09126 6.04938 6.99059H6.04872Z" stroke="none"/>
</g>
</svg>
