<svg width="24" height="24" viewBox="0 0 24 24" stroke="#000" xmlns="http://www.w3.org/2000/svg">
<path fill="none" d="M8.81141 2L5.19141 5.63" stroke-width="1.5" stroke-miterlimit="10" stroke-linecap="round" stroke-linejoin="round"/>
<path fill="none" d="M15.1914 2L18.8114 5.63" stroke-width="1.5" stroke-miterlimit="10" stroke-linecap="round" stroke-linejoin="round"/>
<path fill="none" d="M2 7.8501C2 6.0001 2.99 5.8501 4.22 5.8501H19.78C21.01 5.8501 22 6.0001 22 7.8501C22 10.0001 21.01 9.8501 19.78 9.8501H4.22C2.99 9.8501 2 10.0001 2 7.8501Z" stroke-width="1.5"/>
<path fill="none" d="M9.76172 14V17.55" stroke-width="1.5" stroke-linecap="round"/>
<path fill="none" d="M14.3594 14V17.55" stroke-width="1.5" stroke-linecap="round"/>
<path fill="none" d="M3.5 10L4.91 18.64C5.23 20.58 6 22 8.86 22H14.89C18 22 18.46 20.64 18.82 18.76L20.5 10" stroke-width="1.5" stroke-linecap="round"/>
</svg>
