<svg width="20" height="20" viewBox="0 0 20 20" stroke="#000" xmlns="http://www.w3.org/2000/svg">
<path fill="none" d="M15.0333 11.2864C14.6833 11.6281 14.4833 12.1198 14.5333 12.6448C14.6083 13.5448 15.4333 14.2031 16.3333 14.2031H17.9166V15.1948C17.9166 16.9198 16.5083 18.3281 14.7833 18.3281H5.21659C3.49159 18.3281 2.08325 16.9198 2.08325 15.1948V9.58647C2.08325 7.86147 3.49159 6.45312 5.21659 6.45312H14.7833C16.5083 6.45312 17.9166 7.86147 17.9166 9.58647V10.7865H16.2333C15.7666 10.7865 15.3416 10.9698 15.0333 11.2864Z" stroke-width="1.5" stroke-linecap="round" stroke-linejoin="round"/>
<path fill="none" d="M2.08325 10.3401V6.53183C2.08325 5.54017 2.69159 4.6568 3.61659 4.3068L10.2333 1.8068C11.2666 1.41513 12.3749 2.18182 12.3749 3.29015V6.45681" stroke-width="1.5" stroke-linecap="round" stroke-linejoin="round"/>
<path fill="none" d="M18.7989 11.639V13.3557C18.7989 13.8141 18.4323 14.189 17.9656 14.2057H16.3323C15.4323 14.2057 14.6073 13.5474 14.5323 12.6474C14.4823 12.1224 14.6823 11.6307 15.0323 11.289C15.3406 10.9724 15.7656 10.7891 16.2323 10.7891H17.9656C18.4323 10.8057 18.7989 11.1807 18.7989 11.639Z" stroke-width="1.5" stroke-linecap="round" stroke-linejoin="round"/>
<path fill="none" d="M5.83325 10H11.6666" stroke-width="1.5" stroke-linecap="round" stroke-linejoin="round"/>
</svg>
