<svg width="16" height="16" viewBox="0 0 16 16" fill="none" xmlns="http://www.w3.org/2000/svg">
<g id="check">
<path id="Vector" d="M6.40033 11.1293L5.87 10.599L3.24297 7.97193C3.23378 7.96394 3.22196 7.95956 3.20972 7.95966C3.19661 7.95978 3.18407 7.96503 3.1748 7.9743C3.16553 7.98357 3.16027 7.99612 3.16016 8.00923C3.16005 8.02146 3.16444 8.03328 3.17243 8.04247L6.36498 11.235C6.37435 11.2444 6.38707 11.2497 6.40033 11.2497C6.41355 11.2497 6.42623 11.2444 6.4356 11.2351L6.43568 11.235M6.40033 11.1293L6.96593 11.7654L6.43568 11.235M6.40033 11.1293L6.93066 10.599L12.765 4.76464M6.40033 11.1293L12.765 4.76464M6.43568 11.235L12.8355 4.83518M6.43568 11.235L12.8355 4.83518M12.8355 4.83518C12.8449 4.8258 12.8502 4.81309 12.8502 4.79983C12.8502 4.78661 12.8449 4.77393 12.8356 4.76456M12.8355 4.83518L12.8357 4.76464C12.8357 4.76461 12.8356 4.76459 12.8356 4.76456M12.8356 4.76456C12.8262 4.75524 12.8135 4.75 12.8003 4.75C12.7871 4.75 12.7744 4.75527 12.765 4.76464M12.8356 4.76456L12.765 4.76464" fill="#111928" stroke="white" stroke-width="1.5"/>
</g>
</svg>
