<svg width="16" height="16" viewBox="0 0 16 16" fill="#000" xmlns="http://www.w3.org/2000/svg">
<g id="mi:email">
<path id="Vector" d="M1.33337 4.00008C1.33337 3.64646 1.47385 3.30732 1.7239 3.05727C1.97395 2.80722 2.31309 2.66675 2.66671 2.66675H13.3334C13.687 2.66675 14.0261 2.80722 14.2762 3.05727C14.5262 3.30732 14.6667 3.64646 14.6667 4.00008V12.0001C14.6667 12.3537 14.5262 12.6928 14.2762 12.9429C14.0261 13.1929 13.687 13.3334 13.3334 13.3334H2.66671C2.31309 13.3334 1.97395 13.1929 1.7239 12.9429C1.47385 12.6928 1.33337 12.3537 1.33337 12.0001V4.00008ZM3.67937 4.00008L8.00004 7.78075L12.3207 4.00008H3.67937ZM13.3334 4.88608L8.43937 9.16875C8.3178 9.27526 8.16167 9.33399 8.00004 9.33399C7.83841 9.33399 7.68228 9.27526 7.56071 9.16875L2.66671 4.88608V12.0001H13.3334V4.88608Z" stroke="none"/>
</g>
</svg>
