<svg stroke="#000" width="41" height="41" viewBox="0 0 41 41" fill="none" xmlns="http://www.w3.org/2000/svg">
<g id="vuesax/linear/filter">
<g id="filter">
<path fill="none" id="Vector" d="M9.33333 4.1665H31.3333C33.1667 4.1665 34.6667 5.6665 34.6667 7.49984V11.1665C34.6667 12.4998 33.8333 14.1665 33 14.9998L25.8333 21.3332C24.8333 22.1665 24.1667 23.8332 24.1667 25.1665V32.3332C24.1667 33.3332 23.5 34.6665 22.6667 35.1665L20.3333 36.6665C18.1667 37.9998 15.1667 36.4998 15.1667 33.8332V24.9998C15.1667 23.8332 14.5 22.3332 13.8333 21.4998L7.5 14.8332C6.66667 13.9998 6 12.4998 6 11.4998V7.6665C6 5.6665 7.5 4.1665 9.33333 4.1665Z" stroke-width="2.5" stroke-miterlimit="10" stroke-linecap="round" stroke-linejoin="round"/>
<path fill="none" id="Vector_2" d="M18.5487 4.1665L10.332 17.3332" stroke-width="2.5" stroke-miterlimit="10" stroke-linecap="round" stroke-linejoin="round"/>
</g>
</g>
</svg>
