<svg width="20" height="20" viewBox="0 0 20 20" fill="#000" xmlns="http://www.w3.org/2000/svg">
<g id="home">
<path stroke="none" id="Vector" d="M10.7064 2.29279C10.5189 2.10532 10.2646 2 9.99943 2C9.73427 2 9.47996 2.10532 9.29243 2.29279L2.29243 9.29279C2.11027 9.48139 2.00948 9.73399 2.01176 9.99619C2.01403 10.2584 2.1192 10.5092 2.30461 10.6946C2.49002 10.88 2.74083 10.9852 3.00303 10.9875C3.26523 10.9897 3.51783 10.8889 3.70643 10.7068L3.99943 10.4138V16.9998C3.99943 17.265 4.10479 17.5194 4.29232 17.7069C4.47986 17.8944 4.73421 17.9998 4.99943 17.9998H6.99943C7.26465 17.9998 7.519 17.8944 7.70654 17.7069C7.89407 17.5194 7.99943 17.265 7.99943 16.9998V14.9998C7.99943 14.7346 8.10479 14.4802 8.29232 14.2927C8.47986 14.1051 8.73421 13.9998 8.99943 13.9998H10.9994C11.2646 13.9998 11.519 14.1051 11.7065 14.2927C11.8941 14.4802 11.9994 14.7346 11.9994 14.9998V16.9998C11.9994 17.265 12.1048 17.5194 12.2923 17.7069C12.4799 17.8944 12.7342 17.9998 12.9994 17.9998H14.9994C15.2646 17.9998 15.519 17.8944 15.7065 17.7069C15.8941 17.5194 15.9994 17.265 15.9994 16.9998V10.4138L16.2924 10.7068C16.481 10.8889 16.7336 10.9897 16.9958 10.9875C17.258 10.9852 17.5088 10.88 17.6942 10.6946C17.8797 10.5092 17.9848 10.2584 17.9871 9.99619C17.9894 9.73399 17.8886 9.48139 17.7064 9.29279L10.7064 2.29279Z"/>
</g>
</svg>
