<svg width="16" height="16" viewBox="0 0 16 16" fill="#000" xmlns="http://www.w3.org/2000/svg">
<path stroke="none" d="M14.6673 6.50016C14.394 6.50016 14.1673 6.2735 14.1673 6.00016V4.66683C14.1673 2.94683 13.054 1.8335 11.334 1.8335H4.66732C2.94732 1.8335 1.83398 2.94683 1.83398 4.66683V6.00016C1.83398 6.2735 1.60732 6.50016 1.33398 6.50016C1.06065 6.50016 0.833984 6.2735 0.833984 6.00016V4.66683C0.833984 2.3735 2.37398 0.833496 4.66732 0.833496H11.334C13.6273 0.833496 15.1673 2.3735 15.1673 4.66683V6.00016C15.1673 6.2735 14.9406 6.50016 14.6673 6.50016Z"/>
<path stroke="none" d="M11.334 15.1667H4.66732C2.37398 15.1667 0.833984 13.6267 0.833984 11.3333V10C0.833984 9.72667 1.06065 9.5 1.33398 9.5C1.60732 9.5 1.83398 9.72667 1.83398 10V11.3333C1.83398 13.0533 2.94732 14.1667 4.66732 14.1667H11.334C13.054 14.1667 14.1673 13.0533 14.1673 11.3333V10C14.1673 9.72667 14.394 9.5 14.6673 9.5C14.9406 9.5 15.1673 9.72667 15.1673 10V11.3333C15.1673 13.6267 13.6273 15.1667 11.334 15.1667Z"/>
<path stroke="none" d="M8.0004 8.71997C7.91373 8.71997 7.82706 8.69994 7.74706 8.65328L4.21373 6.61328C3.97373 6.47328 3.89373 6.16663 4.03373 5.92663C4.17373 5.68663 4.4804 5.60662 4.71373 5.74662L7.99373 7.6466L11.2537 5.75997C11.4937 5.61997 11.8004 5.70661 11.9337 5.93994C12.0737 6.17994 11.9871 6.48662 11.7537 6.62662L8.24706 8.65328C8.17373 8.69328 8.08706 8.71997 8.0004 8.71997Z"/>
<path stroke="none" d="M8 12.3464C7.72667 12.3464 7.5 12.1197 7.5 11.8464V8.21973C7.5 7.94639 7.72667 7.71973 8 7.71973C8.27333 7.71973 8.5 7.94639 8.5 8.21973V11.8464C8.5 12.1197 8.27333 12.3464 8 12.3464Z"/>
<path stroke="none" d="M8.00015 12.5C7.61349 12.5 7.23349 12.4134 6.92682 12.2467L4.79349 11.0601C4.15349 10.7067 3.66016 9.86004 3.66016 9.1267V6.86669C3.66016 6.14003 4.16015 5.29339 4.79349 4.93339L6.92682 3.7467C7.54015 3.4067 8.46015 3.4067 9.07349 3.7467L11.2068 4.93339C11.8468 5.28672 12.3401 6.13336 12.3401 6.86669V9.1267C12.3401 9.85337 11.8402 10.7001 11.2068 11.0601L9.07349 12.2467C8.76682 12.4134 8.38682 12.5 8.00015 12.5ZM7.41348 4.6267L5.28015 5.81335C4.95348 5.99335 4.66016 6.50003 4.66016 6.86669V9.1267C4.66016 9.50004 4.95348 10 5.28015 10.18L7.41348 11.3667C7.72015 11.5334 8.28016 11.5334 8.58682 11.3667L10.7202 10.18C11.0468 10 11.3401 9.49337 11.3401 9.1267V6.86669C11.3401 6.49336 11.0468 5.99335 10.7202 5.81335L8.58682 4.6267C8.28016 4.46004 7.72015 4.46004 7.41348 4.6267Z"/>
</svg>
