<svg width="41" height="40" viewBox="0 0 41 40" fill="none" xmlns="http://www.w3.org/2000/svg">
<g id="Icon">
<path id="Union" fill-rule="evenodd" clip-rule="evenodd" d="M9.32718 8.66117C11.6714 6.31696 14.8508 5 18.166 5C21.4812 5 24.6606 6.31696 27.0049 8.66117C29.3491 11.0054 30.666 14.1848 30.666 17.5C30.666 20.2546 29.7568 22.9155 28.1045 25.0814L35.1779 32.1548C35.8287 32.8057 35.8287 33.861 35.1779 34.5118C34.527 35.1627 33.4717 35.1627 32.8208 34.5118L25.7475 27.4385C23.5816 29.0908 20.9207 30 18.166 30C14.8508 30 11.6714 28.683 9.32718 26.3388C6.98298 23.9946 5.66602 20.8152 5.66602 17.5C5.66602 14.1848 6.98298 11.0054 9.32718 8.66117ZM18.166 8.33333C15.7349 8.33333 13.4033 9.2991 11.6842 11.0182C9.96512 12.7373 8.99935 15.0688 8.99935 17.5C8.99935 19.9312 9.96512 22.2627 11.6842 23.9818C13.4033 25.7009 15.7349 26.6667 18.166 26.6667C20.5972 26.6667 22.9287 25.7009 24.6478 23.9818C26.3669 22.2627 27.3327 19.9312 27.3327 17.5C27.3327 15.0688 26.3669 12.7373 24.6478 11.0182C22.9287 9.2991 20.5972 8.33333 18.166 8.33333Z" fill="#9A9DA3"/>
</g>
</svg>
