<svg width="114" height="72" viewBox="0 0 114 72" fill="none" xmlns="http://www.w3.org/2000/svg">
<g id="Logo" clip-path="url(#clip0_2026_178591)">
<path id="Vector" d="M106.717 8.85024C106.717 8.93419 106.717 9.03912 106.696 9.10209C106.589 9.92062 106.589 10.7391 106.653 11.5787C106.696 11.7885 106.738 11.9984 106.909 12.1663C107.187 12.4811 107.614 12.4182 107.785 12.0404C107.871 11.8515 107.871 11.6626 107.828 11.4737C107.614 10.6762 107.571 9.83667 107.55 9.01813C107.55 8.97616 107.55 8.91319 107.55 8.85024C107.785 8.82925 107.999 8.80825 108.191 8.80825C108.341 8.78727 108.469 8.76628 108.576 8.70331C108.896 8.53542 108.896 8.17863 108.554 8.01072C108.426 7.94775 108.255 7.92676 108.106 7.92676C107.571 7.94775 107.037 7.94775 106.503 7.94775C106.311 7.94775 106.119 7.96875 105.926 7.98972C105.82 8.01072 105.691 8.01072 105.606 8.07369C105.456 8.13664 105.371 8.24158 105.371 8.38849C105.392 8.53542 105.456 8.61937 105.606 8.68233C105.691 8.7453 105.798 8.76628 105.905 8.76628C106.161 8.78727 106.439 8.82925 106.717 8.85024ZM112.592 9.81568C112.592 9.83667 112.613 9.85765 112.613 9.85765C112.699 10.4243 112.784 10.97 112.848 11.5157C112.87 11.7046 112.891 11.8725 113.019 12.0194C113.297 12.3762 113.724 12.3342 113.916 11.9564C114.002 11.7675 114.023 11.5787 113.981 11.3688C113.852 10.7391 113.788 10.1095 113.66 9.50086C113.575 9.12307 113.468 8.76628 113.361 8.43048C113.297 8.2206 113.147 8.07367 112.891 8.05269C112.635 8.01072 112.442 8.13664 112.336 8.32554C112.207 8.49343 112.101 8.66134 112.015 8.85024C111.866 9.18604 111.737 9.52185 111.567 9.83667C111.545 9.92062 111.524 9.98358 111.481 10.0465C111.46 10.0046 111.438 9.98358 111.438 9.98358C111.161 9.45888 110.904 8.93418 110.626 8.43048C110.584 8.38849 110.562 8.34652 110.541 8.30454C110.413 8.11566 110.263 8.01072 110.028 8.01072C109.815 8.0317 109.644 8.15763 109.537 8.34652C109.494 8.43048 109.494 8.49343 109.473 8.57739C109.387 9.249 109.28 9.92062 109.195 10.5922C109.152 10.97 109.131 11.3478 109.131 11.7256C109.11 11.8095 109.131 11.9145 109.174 11.9984C109.216 12.1663 109.345 12.2713 109.515 12.2922C109.729 12.3132 109.879 12.2503 109.943 12.0824C110.007 11.9564 110.028 11.8515 110.05 11.7466C110.135 11.3688 110.199 11.012 110.263 10.6552C110.306 10.4453 110.327 10.2774 110.391 10.0465C110.434 10.1305 110.477 10.1935 110.52 10.2564C110.712 10.5083 110.904 10.7601 111.139 10.97C111.374 11.1379 111.566 11.1169 111.759 10.928C111.802 10.8861 111.823 10.8651 111.866 10.8231C112.058 10.5293 112.293 10.2354 112.485 9.9416C112.528 9.89962 112.549 9.85765 112.592 9.81568Z" fill="#3A3B7B"/>
<path id="Vector_2" d="M63.3664 9.26243C63.2178 9.66129 63.1895 9.94865 63.2581 10.1875C63.3338 10.5123 63.5304 10.6186 63.7971 10.536C66.3064 9.92641 71.8089 11.6567 73.8461 12.139C74.3265 12.2402 74.7173 11.6309 74.3895 11.0846C73.911 10.5556 68.411 8.29059 66.3125 8.16709C65.4899 8.12142 64.0193 7.91419 63.3664 9.26243Z" fill="#3A3B7B"/>
<path id="Vector_3" d="M84.8719 1.93044C85.1393 2.08208 85.2888 2.22674 85.3626 2.38836C85.4725 2.60037 85.4145 2.74705 85.2299 2.8219C83.5712 3.6172 81.364 7.04115 80.473 8.22203C80.257 8.49368 79.7588 8.33582 79.6836 7.8891C79.6991 7.38398 81.6556 3.66824 82.7476 2.6562C83.1767 2.26107 83.8856 1.48577 84.8719 1.93044Z" fill="#3A3B7B"/>
<path id="Vector_4" d="M71.6601 0.245121C71.9815 0.00723089 72.3153 -0.0761328 72.4858 0.0784656C74.9884 2.18111 76.3156 5.51083 77.1374 8.55911C77.1683 8.63013 77.1702 8.73205 77.1455 8.83836C77.1352 8.92923 77.0676 9.02522 76.9603 9.09949C76.8457 9.18149 76.747 9.20646 76.7006 9.1358C75.6037 7.67016 69.3391 1.9676 71.6601 0.245121Z" fill="#3A3B7B"/>
<path id="Vector_5" d="M18.6651 36.6998C19.2649 36.2611 19.9169 35.8959 20.607 35.6124C21.3289 35.4097 22.0984 35.4432 22.7992 35.7083C23.4998 35.9734 24.0937 36.4553 24.4908 37.0814C24.846 37.7058 24.9849 38.4268 24.8868 39.1357C24.7888 39.8444 24.459 40.5027 23.947 41.0115C23.5501 41.4238 23.0995 41.783 22.6072 42.0798C20.4128 43.4725 18.199 44.7888 15.9852 46.1815C15.5322 46.5301 15.0517 46.8428 14.5482 47.1164C13.7823 47.4916 12.907 47.5921 12.0737 47.4005C11.2404 47.209 10.5015 46.7372 9.98464 46.0672C9.59829 45.5926 9.27224 45.0737 9.01367 44.5218C6.9164 40.1911 4.74146 35.8795 2.72185 31.4724C1.78972 29.5648 1.03237 27.3707 0.294442 25.2531C-0.0248204 24.6378 -0.0871652 23.9245 0.120683 23.2648C0.328532 22.605 0.790175 22.0509 1.40741 21.7204C2.02466 21.3898 2.74878 21.309 3.42581 21.4949C4.10284 21.6808 4.67936 22.1188 5.03272 22.7158C6.1189 24.1338 7.08039 25.6401 7.90678 27.2182C10.0041 31.0337 12.0042 34.8492 14.0238 38.5504C14.1414 38.7549 14.2711 38.9523 14.4122 39.1417C15.9323 38.5139 17.362 37.6929 18.6651 36.6998Z" fill="#3A3B7B"/>
<path id="Vector_6" d="M40.3495 35.3685C35.553 40.8819 27.5134 39.4892 23.4742 32.3922C20.6001 27.3557 20.0953 19.0377 26.3483 13.7913C27.6836 12.6929 29.2803 11.9447 30.9894 11.6164C33.0851 11.3213 35.2221 11.6845 37.095 12.6542C38.9678 13.6238 40.4808 15.1503 41.4177 17.0155C44.8354 23.1204 44.3499 30.9041 40.3495 35.3685ZM38.4076 22.5099C37.898 21.0097 36.8758 19.7289 35.5141 18.885C34.7436 18.3455 33.8074 18.0832 32.8631 18.1423C31.9187 18.2014 31.024 18.5782 30.3292 19.2094C27.5523 21.6323 26.9696 27.3748 28.9892 30.7898C29.2467 31.3466 29.6247 31.8414 30.0972 32.2397C30.5696 32.638 31.1249 32.9301 31.7243 33.0954C32.3236 33.2608 32.9524 33.2955 33.5668 33.1972C34.1813 33.0987 34.7663 32.8696 35.2812 32.5258C36.7865 31.3792 37.8908 29.8004 38.4406 28.0089C38.9906 26.2173 38.9587 24.3019 38.3494 22.5291L38.4076 22.5099Z" fill="#3A3B7B"/>
<path id="Vector_7" d="M59.9238 24.9141C59.4327 25.0178 58.9254 25.0241 58.4318 24.9323C57.9384 24.8405 57.4684 24.6528 57.0498 24.38C56.6836 24.1741 56.3683 23.8912 56.1266 23.5513C55.8851 23.2115 55.7232 22.8233 55.6527 22.4145C55.582 22.0059 55.6046 21.587 55.7185 21.1879C55.8325 20.7888 56.0352 20.4195 56.3119 20.1065C56.794 19.4774 57.4783 19.0271 58.2538 18.8283C60.2786 18.251 62.363 17.899 64.468 17.7791C64.9305 17.7262 65.399 17.7647 65.8461 17.8921C66.2933 18.0198 66.7099 18.2336 67.0717 18.5216C67.4334 18.8095 67.7331 19.1656 67.9529 19.5688C68.1726 19.972 68.3083 20.4143 68.3518 20.8697C68.9586 23.1066 69.025 25.452 68.5459 27.7187C66.7983 35.0445 60.7783 37.5627 54.0203 35.2162C52.1234 34.5888 50.4601 33.4197 49.2433 31.8585C47.6202 29.9783 46.4695 27.7501 45.8837 25.353C45.4091 23.2183 45.4611 21.0033 46.0355 18.8926C46.6097 16.7819 47.6896 14.8366 49.185 13.2194C50.6041 11.4617 52.446 10.0783 54.5447 9.19398C55.8709 8.47586 57.4228 8.27167 58.8947 8.62164C59.2285 8.71243 59.5316 8.88932 59.7725 9.13397C60.0133 9.37864 60.1832 9.68214 60.2645 10.013C60.3457 10.3439 60.3353 10.6901 60.2345 11.0157C60.1335 11.3414 59.9459 11.6345 59.6909 11.8649C59.2059 12.2961 58.679 12.6795 58.1178 13.0096C56.3914 14.0897 54.889 15.4815 53.6902 17.1113C52.9044 18.1659 52.3633 19.377 52.105 20.6591C51.8465 21.9411 51.8773 23.2633 52.195 24.5327C52.6354 26.2633 53.6127 27.8167 54.9913 28.9777C59.2635 32.7933 64.8175 29.1112 63.8465 23.903C62.429 24.2465 61.1861 24.6089 59.9238 24.9141Z" fill="#3A3B7B"/>
<path id="Vector_8" d="M86.0237 35.6739C79.7125 39.4896 72.5274 35.6739 70.9544 27.6613C69.8087 21.938 71.9836 13.9252 79.5961 10.8727C81.2157 10.2373 82.9724 10.0141 84.7033 10.2241C86.7828 10.5981 88.6905 11.6038 90.1572 13.0996C91.6239 14.5953 92.5759 16.5056 92.8787 18.5612C94.1604 25.3719 91.2475 32.6406 86.0237 35.6739ZM88.2182 22.8345C88.2163 21.2497 87.6456 19.7161 86.6064 18.5039C86.0509 17.7541 85.2479 17.2169 84.3342 16.9837C83.4204 16.7507 82.4529 16.8361 81.5961 17.2257C78.1784 18.6755 75.7704 23.941 76.6443 27.814C76.7111 28.4217 76.912 29.0079 77.2333 29.5313C77.5547 30.0548 77.9885 30.503 78.5046 30.8447C79.0205 31.1862 79.6063 31.413 80.2208 31.509C80.8354 31.6049 81.4639 31.5679 82.0622 31.4006C83.8688 30.7805 85.433 29.6218 86.5366 28.0861C87.6402 26.5504 88.2281 24.7144 88.2182 22.8345Z" fill="#3A3B7B"/>
<path id="Vector_9" d="M99.2625 37.2764C99.1673 37.9747 98.7937 38.6071 98.2237 39.0347C97.6537 39.4621 96.9342 39.6498 96.2234 39.5562C95.5127 39.4626 94.869 39.0954 94.4338 38.5354C93.9985 37.9756 93.8076 37.2687 93.9029 36.5705C93.9982 35.8723 94.3719 35.2398 94.9418 34.8122C95.5118 34.3846 96.2313 34.1971 96.942 34.2907C97.6527 34.3843 98.2965 34.7513 98.7318 35.3113C99.1669 35.8713 99.358 36.5782 99.2625 37.2764ZM97.573 11.5403C97.9424 10.9861 98.4842 10.5641 99.1177 10.3372C99.7511 10.1103 100.442 10.0906 101.088 10.2812C101.744 10.4425 102.324 10.8205 102.731 11.3519C103.138 11.8833 103.346 12.5358 103.321 13.2001C103.236 14.2656 103.073 15.3239 102.836 16.367C102.195 19.8964 101.573 23.4257 100.894 26.9171C100.583 28.3098 100.175 29.6452 99.7286 31.0569C99.5732 31.4983 99.3137 31.897 98.9713 32.2207C98.7585 32.4642 98.4867 32.6509 98.1808 32.7637C97.875 32.8766 97.5452 32.9117 97.2219 32.8661C96.8986 32.8204 96.5921 32.6954 96.3311 32.5027C96.07 32.3097 95.8627 32.0553 95.7284 31.7629C95.4974 31.2382 95.372 30.6745 95.3593 30.1031C95.3593 27.7374 95.3593 25.3527 95.5147 22.9679C95.7787 19.5646 96.2979 16.185 97.0682 12.8567C97.1589 12.4108 97.3297 11.9843 97.573 11.5975V11.5403Z" fill="#3A3B7B"/>
<path id="Vector_10" fill-rule="evenodd" clip-rule="evenodd" d="M10.4608 52.6071C10.2315 53.11 10.1686 53.6706 10.2807 54.2101C10.3552 54.9213 10.5189 55.6208 10.7681 56.2927C11.0792 57.1155 11.4273 57.9291 11.8565 58.9318C11.9552 59.1626 12.0584 59.4034 12.1663 59.6569C12.7452 61.0154 13.4714 62.7516 14.4402 65.2642C14.7144 65.978 14.9579 66.6977 15.2031 67.4223C15.3021 67.715 15.4015 68.0087 15.5033 68.3031C15.868 69.3497 16.4956 70.29 17.3275 71.0352C17.6807 71.4448 18.1493 71.7432 18.6746 71.8925C19.2103 72.0447 19.78 72.035 20.3099 71.8648C20.8398 71.6945 21.3053 71.3715 21.6458 70.9377C21.9797 70.5124 22.1782 69.9999 22.2168 69.4644C22.4334 68.4214 22.3594 67.34 22.0025 66.3344C21.4359 64.6648 20.7905 62.9928 20.0462 61.3574L20.0428 61.3502C18.8184 58.7916 17.5739 56.2506 16.2704 53.7087L16.2607 53.6909C15.8791 53.0286 15.3832 52.4366 14.7953 51.9414C14.4136 51.4995 13.8872 51.2013 13.3058 51.0986C12.712 50.9937 12.0996 51.0994 11.5779 51.397C11.0844 51.6739 10.6931 52.0976 10.4608 52.6071Z" fill="#3A3B7B"/>
<path id="Vector_11" fill-rule="evenodd" clip-rule="evenodd" d="M29.16 46.3067C27.2402 45.8183 25.2353 45.7471 23.2849 46.0983C21.7743 46.2444 20.2885 46.5867 19.2568 47.2648C18.7321 47.6099 18.3079 48.0531 18.0719 48.6163C17.8346 49.1826 17.8043 49.8303 17.9988 50.5519C18.3538 51.8738 18.8148 53.159 19.2742 54.4401L19.3487 54.6476L19.3505 54.6522C20.7338 58.3739 22.1303 62.0831 23.5395 65.7795C23.7038 66.362 23.9362 66.9239 24.2319 67.4539L24.2375 67.4638C24.6282 68.1222 25.1293 68.7112 25.7196 69.2058C26.0149 69.4778 26.38 69.666 26.7759 69.7501C27.1757 69.8349 27.5915 69.8103 27.978 69.6787C28.3646 69.5473 28.7069 69.3142 28.9678 69.0046C29.2245 68.7 29.3926 68.3332 29.4543 67.9427C29.709 66.882 29.6274 65.7701 29.2203 64.7562C29.0932 64.4151 28.9936 64.0663 28.8885 63.6993C28.8535 63.5769 28.818 63.4524 28.7805 63.3256C32.0063 62.0868 35.4385 60.4212 36.6454 56.5463C37.118 55.2072 37.1574 53.7573 36.7581 52.3951C36.3584 51.0316 35.5385 49.8229 34.4112 48.9357C32.8769 47.6937 31.0846 46.7963 29.16 46.3067ZM23.8386 51.0595C23.9022 51.0415 23.9662 51.0249 24.0303 51.0093C26.1304 50.685 28.2789 51.1171 30.0805 52.2259C30.8744 52.7684 31.1996 53.3711 31.2555 53.951C31.3131 54.5481 31.0921 55.1951 30.6482 55.8171C29.8093 56.992 28.2785 57.9324 26.8956 58.1077C25.8876 55.8269 24.8638 53.4539 23.8386 51.0595Z" fill="#3A3B7B"/>
<path id="Vector_12" d="M41.9591 42.1317C44.2452 41.0944 47.0772 40.9153 49.2932 41.6446C49.8513 41.8043 50.3354 42.1497 50.663 42.6218C50.9883 43.091 51.1385 43.6563 51.0883 44.2215C51.0851 44.5884 50.9934 44.9494 50.8209 45.275C50.6454 45.6065 50.3911 45.8916 50.0798 46.1063C49.7684 46.3208 49.409 46.4588 49.0319 46.508C48.6548 46.5574 48.2712 46.5168 47.9134 46.3897L47.8862 46.3801L47.8607 46.3668C47.6776 46.2727 47.4832 46.2018 47.282 46.1557L47.2693 46.1529C45.7105 45.7461 44.24 46.4201 43.7029 47.2483C43.4468 47.6432 43.415 48.0418 43.6283 48.4044C43.8568 48.7927 44.4172 49.2285 45.5512 49.5391C45.8631 49.6232 46.1828 49.7043 46.507 49.7868C47.4037 50.0149 48.3356 50.2518 49.2366 50.5803L49.2401 50.5816C53.3972 52.1355 54.9451 55.3537 54.4152 58.3806C53.8909 61.3741 51.3463 64.0983 47.5196 64.7409C46.1272 65.0441 44.6781 64.985 43.3158 64.5695C41.9501 64.1528 40.7191 63.3923 39.745 62.3634L39.7196 62.3366C39.4121 61.9489 39.2053 61.4935 39.1136 61.0103C39.0293 60.5742 39.0737 60.1235 39.2415 59.7113C39.4082 59.3016 39.6903 58.947 40.0543 58.6886C40.4388 58.3957 40.9023 58.22 41.3874 58.1833C41.8709 58.1468 42.3548 58.2501 42.7794 58.4801C43.2034 58.6814 43.5979 58.9382 43.9519 59.2435L43.9586 59.2491C44.585 59.8118 45.3427 59.9584 46.0694 59.8226C46.8067 59.6848 47.4999 59.2563 47.9458 58.6876C48.3888 58.1226 48.5667 57.4514 48.3556 56.7998C48.1432 56.1434 47.5047 55.408 46.1017 54.7933C45.7349 54.6403 45.3546 54.5169 44.959 54.3968C44.8524 54.3644 44.7439 54.3321 44.6341 54.2994C44.3417 54.2122 44.0407 54.1223 43.7456 54.0233C43.5424 53.9553 43.3407 53.8908 43.1411 53.8268C42.5953 53.6522 42.0633 53.482 41.5513 53.2538C40.4368 52.881 39.474 52.1653 38.8061 51.2124C38.1355 50.2558 37.7981 49.1118 37.844 47.9513C37.8476 45.1232 39.6607 43.1747 41.9591 42.1317Z" fill="#3A3B7B"/>
<path id="Vector_13" d="M70.943 41.8305C70.4997 41.6178 70.0095 41.5168 69.5167 41.5366C69.0237 41.5566 68.5436 41.6967 68.1197 41.9446C67.6984 42.1907 67.3456 42.5353 67.0929 42.9478C66.8611 43.2952 66.7007 43.6837 66.6207 44.0916C66.5408 44.4993 66.5427 44.9182 66.6263 45.3248C66.7088 45.8475 66.8004 46.3557 66.8907 46.8569C67.0404 47.6864 67.186 48.4972 67.2821 49.3239L67.2857 49.3449C67.5044 50.6413 67.6189 51.9526 67.6291 53.2666L67.6301 53.2852C67.7049 54.7043 67.2127 56.0957 66.2592 57.1642L66.244 57.1832C65.9338 57.5738 65.519 57.8719 65.0459 58.0443C64.573 58.2166 64.0606 58.2562 63.566 58.1586C63.0714 58.0611 62.6143 57.8304 62.2456 57.4921C61.8769 57.1539 61.6109 56.7203 61.4782 56.2423C61.1948 55.2348 61.0308 54.1985 60.9891 53.1541L61.4731 45.5838C61.4803 45.485 61.4885 45.3835 61.4968 45.2811C61.5152 45.0512 61.534 44.817 61.5419 44.5986C61.5533 44.2772 61.5435 43.9467 61.4673 43.6338C61.3893 43.314 61.2409 43.0098 60.9777 42.7508C60.7172 42.4944 60.3654 42.3052 59.9227 42.1764C59.1223 41.9488 58.4455 41.956 57.8815 42.1912C57.3172 42.4263 56.9306 42.8629 56.657 43.3672C56.3855 43.8673 56.2111 44.4593 56.0792 45.0523C55.9813 45.4924 55.9026 45.9543 55.8279 46.394C55.802 46.5455 55.7767 46.6943 55.7512 46.8388L55.7505 46.843C55.3505 49.2544 55.2315 51.7027 55.3956 54.1405C55.4263 55.458 55.7059 56.7584 56.2205 57.9754C56.8011 59.5456 57.8527 60.9061 59.2365 61.8773C60.6232 62.8504 62.278 63.3867 63.9818 63.415C65.6856 63.4433 67.358 62.9623 68.7774 62.036C70.1946 61.111 71.2929 59.7852 71.9271 58.2341C72.8142 56.2582 73.2308 54.1093 73.1448 51.9513C73.0927 50.3758 73.0054 48.7882 72.9186 47.2086C72.8759 46.4338 72.8334 45.6606 72.7953 44.8921C72.7761 44.1216 72.5175 43.3752 72.054 42.7533C71.7672 42.36 71.3854 42.0429 70.943 41.8305Z" fill="#3A3B7B"/>
<path id="Vector_14" d="M86.633 53.7011C86.588 53.7572 86.5407 53.8153 86.4911 53.8757C86.1306 51.8322 85.7964 49.7894 85.4617 47.7434C85.3417 47.0094 85.221 46.2722 85.0997 45.5371L85.086 45.4551L85.0417 45.3843C84.9582 45.2509 84.9499 45.1202 84.9499 44.8413V44.8091L84.9448 44.7772C84.8543 44.2014 84.5891 43.6655 84.1841 43.2397C83.7802 42.815 83.2557 42.5195 82.6787 42.3912C82.1026 42.2516 81.4973 42.2824 80.9389 42.4797C80.3819 42.6766 79.8964 43.0304 79.543 43.4967C79.2492 43.8546 79.0084 44.2516 78.8279 44.6757C78.4183 45.5895 78.0052 46.5055 77.5908 47.424L77.5837 47.4399C76.5494 49.7329 75.5081 52.0413 74.497 54.3679L74.4939 54.3755C73.8733 55.884 73.361 57.4736 72.8504 59.0582C72.7484 59.3745 72.6465 59.6907 72.5437 60.006C72.3594 60.5061 72.2788 61.0373 72.3065 61.5683C72.2729 62.0436 72.3887 62.5178 72.6385 62.9268C72.8932 63.344 73.2748 63.6723 73.7293 63.8655C74.2111 64.073 74.7496 64.1171 75.2599 63.9907C75.769 63.8646 76.2211 63.5759 76.545 63.1701C76.9586 62.6702 77.3145 62.1249 77.6047 61.5473C78.4612 59.8262 79.2797 58.0841 80.0944 56.3496C80.4097 55.6787 80.7161 55.0778 81.0646 54.4234C81.0885 54.5041 81.113 54.5828 81.1382 54.6617C81.5035 56.2416 82.1201 57.7549 82.9651 59.1461C83.1251 59.4408 83.3478 59.6984 83.6182 59.9011C83.8918 60.1063 84.2076 60.2503 84.5435 60.3235C84.8795 60.3966 85.2277 60.3969 85.5638 60.3245C85.8995 60.2521 86.2162 60.108 86.49 59.9037L87.0318 59.5053L91.2373 56.0252L90.9886 57.5822C90.6473 59.7224 90.3085 61.8448 89.9486 63.9677C89.7131 64.9086 89.7134 65.8914 89.9496 66.8319C90.0519 67.3613 90.3124 67.8486 90.6981 68.2319C91.087 68.6182 91.585 68.8807 92.1276 68.9854C92.6703 69.09 93.2325 69.032 93.7411 68.8188C94.2423 68.6089 94.6687 68.2577 94.9667 67.8102C95.6602 66.965 96.0917 65.9418 96.2103 64.8623C96.3888 63.3378 96.5904 61.7926 96.7922 60.2479C97.0246 58.4673 97.257 56.6873 97.4532 54.9415L97.4539 54.9361C97.6428 53.025 97.7342 51.106 97.7278 49.1859C97.7692 48.5791 97.6154 47.9747 97.2878 47.4581C96.959 46.9397 96.472 46.5366 95.8965 46.3061C95.2978 46.0387 94.6277 45.9672 93.9845 46.1023C93.3456 46.2365 92.7673 46.5674 92.3335 47.0467C91.5578 47.7515 90.8301 48.5057 90.1551 49.3044L90.1505 49.3098C89.4136 50.2119 88.6817 51.1317 87.9546 52.0456C87.5124 52.6011 87.0716 53.1554 86.633 53.7011Z" fill="#3A3B7B"/>
</g>
<defs>
<clipPath id="clip0_2026_178591">
<rect width="114" height="72" fill="white"/>
</clipPath>
</defs>
</svg>
