<svg width="192" height="48" viewBox="0 0 192 48" fill="none" xmlns="http://www.w3.org/2000/svg">
<g id="Logo">
<path id="Vector" d="M1.10156 35.5983L1.10157 11.8662L12.89 18.4585V29.0719L22.3208 34.4116L31.7516 29.0719V18.4585L43.5401 11.8662V35.5983L22.3208 47.4642L1.10156 35.5983Z" fill="#192657"/>
<path id="Vector_2" fill-rule="evenodd" clip-rule="evenodd" d="M6.99581 15.1622L1.10156 11.866L22.3208 0L43.5401 11.866L37.6458 15.1622V32.6315L22.3208 41.5311L6.99579 32.6315L6.99581 15.1622ZM37.0073 15.5193L31.7516 18.4583V18.3923L22.3208 13.0526L12.89 18.3923V18.4583L7.63434 15.5193V32.2665L22.3208 40.7952L37.0073 32.2665V15.5193Z" fill="url(#paint0_linear_2026_178692)"/>
<path id="Vector_3" d="M54.8398 33.7225V13.7876H58.5744V30.305H67.628V33.7225H54.8398Z" fill="#192657"/>
<path id="Vector_4" d="M75.6919 34.1209C74.2962 34.1209 73.0419 33.8362 71.9291 33.2665C70.8163 32.697 69.9392 31.8711 69.2979 30.789C68.6566 29.7068 68.3359 28.4063 68.3359 26.8875V26.4317C68.3359 24.9129 68.6566 23.6123 69.2979 22.5302C69.9392 21.4481 70.8163 20.6222 71.9291 20.0526C73.0419 19.483 74.2962 19.1982 75.6919 19.1982C77.0877 19.1982 78.342 19.483 79.4549 20.0526C80.5677 20.6222 81.4448 21.4481 82.086 22.5302C82.7273 23.6123 83.048 24.9129 83.048 26.4317V26.8875C83.048 28.4063 82.7273 29.7068 82.086 30.789C81.4448 31.8711 80.5677 32.697 79.4549 33.2665C78.342 33.8362 77.0877 34.1209 75.6919 34.1209ZM75.6919 30.9313C76.7859 30.9313 77.6914 30.5802 78.408 29.8776C79.1248 29.1562 79.4831 28.1309 79.4831 26.8019V26.5172C79.4831 25.1883 79.1248 24.1724 78.408 23.47C77.7102 22.7486 76.8048 22.3878 75.6919 22.3878C74.598 22.3878 73.6926 22.7486 72.9759 23.47C72.2591 24.1724 71.9009 25.1883 71.9009 26.5172V26.8019C71.9009 28.1309 72.2591 29.1562 72.9759 29.8776C73.6926 30.5802 74.598 30.9313 75.6919 30.9313Z" fill="#192657"/>
<path id="Vector_5" d="M84.3867 26.7166V26.2609C84.3867 24.78 84.679 23.5175 85.2638 22.4732C85.8484 21.41 86.6218 20.6031 87.5837 20.0526C88.5645 19.483 89.6302 19.1982 90.7807 19.1982C92.0633 19.1982 93.0347 19.4261 93.6948 19.8817C94.355 20.3374 94.836 20.8121 95.1377 21.3057H95.6471V19.5969H99.1553V36.2284C99.1553 37.1966 98.8723 37.9655 98.3065 38.5352C97.7406 39.1237 96.9862 39.418 96.0431 39.418H86.6501V36.2854H94.7983C95.3263 36.2854 95.5905 36.0005 95.5905 35.431V31.7572H95.0811C94.8925 32.061 94.6285 32.3742 94.289 32.697C93.9494 33.0008 93.4968 33.2571 92.931 33.466C92.3651 33.6748 91.6483 33.7793 90.7807 33.7793C89.6302 33.7793 88.5645 33.5039 87.5837 32.9533C86.6218 32.3837 85.8484 31.5768 85.2638 30.5327C84.679 29.4695 84.3867 28.1975 84.3867 26.7166ZM91.7993 30.6466C92.8932 30.6466 93.808 30.2953 94.5436 29.5929C95.2793 28.8905 95.6471 27.9032 95.6471 26.6312V26.3463C95.6471 25.0553 95.2793 24.0681 94.5436 23.3846C93.8268 22.6822 92.9121 22.3309 91.7993 22.3309C90.7053 22.3309 89.7905 22.6822 89.055 23.3846C88.3193 24.0681 87.9515 25.0553 87.9515 26.3463V26.6312C87.9515 27.9032 88.3193 28.8905 89.055 29.5929C89.7905 30.2953 90.7053 30.6466 91.7993 30.6466Z" fill="#192657"/>
<path id="Vector_6" d="M108.508 34.1209C107.112 34.1209 105.858 33.8362 104.745 33.2665C103.633 32.697 102.755 31.8711 102.114 30.789C101.473 29.7068 101.152 28.4063 101.152 26.8875V26.4317C101.152 24.9129 101.473 23.6123 102.114 22.5302C102.755 21.4481 103.633 20.6222 104.745 20.0526C105.858 19.483 107.112 19.1982 108.508 19.1982C109.904 19.1982 111.158 19.483 112.271 20.0526C113.384 20.6222 114.261 21.4481 114.902 22.5302C115.544 23.6123 115.864 24.9129 115.864 26.4317V26.8875C115.864 28.4063 115.544 29.7068 114.902 30.789C114.261 31.8711 113.384 32.697 112.271 33.2665C111.158 33.8362 109.904 34.1209 108.508 34.1209ZM108.508 30.9313C109.602 30.9313 110.508 30.5802 111.224 29.8776C111.941 29.1562 112.3 28.1309 112.3 26.8019V26.5172C112.3 25.1883 111.941 24.1724 111.224 23.47C110.526 22.7486 109.621 22.3878 108.508 22.3878C107.414 22.3878 106.509 22.7486 105.792 23.47C105.076 24.1724 104.717 25.1883 104.717 26.5172V26.8019C104.717 28.1309 105.076 29.1562 105.792 29.8776C106.509 30.5802 107.414 30.9313 108.508 30.9313Z" fill="#192657"/>
<path id="Vector_7" d="M117.884 33.7224V19.597H121.449V33.7224H117.884ZM119.667 17.9453C119.025 17.9453 118.478 17.7365 118.026 17.3187C117.592 16.901 117.375 16.3504 117.375 15.667C117.375 14.9835 117.592 14.4329 118.026 14.0152C118.478 13.5976 119.025 13.3887 119.667 13.3887C120.327 13.3887 120.874 13.5976 121.308 14.0152C121.741 14.4329 121.958 14.9835 121.958 15.667C121.958 16.3504 121.741 16.901 121.308 17.3187C120.874 17.7365 120.327 17.9453 119.667 17.9453Z" fill="#192657"/>
<path id="Vector_8" d="M124.125 39.4182V19.5971H127.633V21.3059H128.143C128.463 20.7553 128.962 20.2712 129.643 19.8534C130.321 19.4168 131.293 19.1985 132.556 19.1985C133.688 19.1985 134.735 19.4832 135.696 20.0529C136.659 20.6034 137.432 21.4197 138.017 22.502C138.601 23.5842 138.894 24.8942 138.894 26.432V26.8877C138.894 28.4255 138.601 29.7355 138.017 30.8176C137.432 31.8999 136.659 32.7258 135.696 33.2953C134.735 33.8459 133.688 34.1212 132.556 34.1212C131.707 34.1212 130.99 34.0167 130.406 33.8079C129.84 33.6181 129.378 33.3712 129.02 33.0675C128.68 32.7447 128.406 32.422 128.199 32.0992H127.69V39.4182H124.125ZM131.481 30.9886C132.594 30.9886 133.509 30.6373 134.225 29.9348C134.961 29.2134 135.329 28.1692 135.329 26.8022V26.5175C135.329 25.1505 134.961 24.1157 134.225 23.4133C133.49 22.6919 132.575 22.3311 131.481 22.3311C130.387 22.3311 129.472 22.6919 128.737 23.4133C128.001 24.1157 127.633 25.1505 127.633 26.5175V26.8022C127.633 28.1692 128.001 29.2134 128.737 29.9348C129.472 30.6373 130.387 30.9886 131.481 30.9886Z" fill="#192657"/>
<path id="Vector_9" d="M146.722 34.1209C144.893 34.1209 143.393 33.7223 142.224 32.9249C141.055 32.1274 140.348 30.9883 140.102 29.5074L143.384 28.6531C143.516 29.3175 143.733 29.8397 144.034 30.2194C144.356 30.5991 144.742 30.8744 145.195 31.0453C145.666 31.1971 146.175 31.2731 146.722 31.2731C147.552 31.2731 148.166 31.1307 148.562 30.8459C148.957 30.5422 149.156 30.1719 149.156 29.7353C149.156 29.2986 148.967 28.9664 148.59 28.7385C148.213 28.4917 147.61 28.2923 146.779 28.1405L145.987 27.998C145.006 27.8082 144.11 27.5519 143.299 27.2291C142.488 26.8875 141.837 26.4222 141.346 25.8337C140.857 25.2451 140.611 24.4857 140.611 23.5554C140.611 22.1505 141.121 21.0778 142.14 20.3374C143.157 19.5779 144.497 19.1982 146.156 19.1982C147.723 19.1982 149.024 19.5495 150.06 20.252C151.098 20.9544 151.777 21.8753 152.098 23.0144L148.788 24.0395C148.637 23.3182 148.326 22.8054 147.854 22.5018C147.401 22.198 146.835 22.046 146.156 22.046C145.478 22.046 144.959 22.1694 144.6 22.4163C144.243 22.6441 144.063 22.9669 144.063 23.3846C144.063 23.8402 144.252 24.1819 144.629 24.4098C145.006 24.6186 145.515 24.78 146.156 24.8939L146.948 25.0363C148.005 25.2262 148.957 25.4825 149.807 25.8052C150.674 26.109 151.353 26.5551 151.844 27.1438C152.353 27.7133 152.608 28.4917 152.608 29.479C152.608 30.9599 152.07 32.1085 150.994 32.9249C149.939 33.7223 148.514 34.1209 146.722 34.1209Z" fill="#192657"/>
<path id="Vector_10" d="M159.804 33.9503C158.711 33.9503 157.748 33.7035 156.919 33.21C156.108 32.6973 155.476 31.9948 155.023 31.1025C154.571 30.2102 154.344 29.1849 154.344 28.0269V19.5972H157.909V27.742C157.909 28.8052 158.164 29.6026 158.673 30.1342C159.2 30.6658 159.946 30.9316 160.908 30.9316C162.001 30.9316 162.851 30.5709 163.454 29.8495C164.058 29.109 164.359 28.0838 164.359 26.7738V19.5972H167.924V33.7226H164.416V31.8714H163.907C163.68 32.3461 163.256 32.8112 162.634 33.2668C162.011 33.7226 161.068 33.9503 159.804 33.9503Z" fill="#192657"/>
<path id="Vector_11" d="M170.617 33.7228V19.5974H174.125V21.1353H174.634C174.879 20.6606 175.285 20.2524 175.85 19.9106C176.416 19.55 177.161 19.3696 178.086 19.3696C179.085 19.3696 179.887 19.569 180.491 19.9676C181.094 20.3473 181.556 20.8504 181.877 21.477H182.386C182.707 20.8695 183.16 20.3664 183.745 19.9676C184.329 19.569 185.159 19.3696 186.234 19.3696C187.102 19.3696 187.885 19.5595 188.582 19.9392C189.299 20.2998 189.865 20.8599 190.28 21.6194C190.713 22.3598 190.93 23.2996 190.93 24.4388V33.7228H187.365V24.6951C187.365 23.9166 187.168 23.3376 186.772 22.9579C186.375 22.5592 185.819 22.3598 185.103 22.3598C184.292 22.3598 183.659 22.6257 183.206 23.1572C182.773 23.6698 182.556 24.4103 182.556 25.3786V33.7228H178.991V24.6951C178.991 23.9166 178.793 23.3376 178.398 22.9579C178.001 22.5592 177.445 22.3598 176.727 22.3598C175.917 22.3598 175.285 22.6257 174.832 23.1572C174.398 23.6698 174.181 24.4103 174.181 25.3786V33.7228H170.617Z" fill="#192657"/>
</g>
<defs>
<linearGradient id="paint0_linear_2026_178692" x1="6.99579" y1="9.22911" x2="38.8247" y2="9.22912" gradientUnits="userSpaceOnUse">
<stop stop-color="#64C2DB"/>
<stop offset="0.307292" stop-color="#7476ED"/>
<stop offset="0.604167" stop-color="#C994DF"/>
<stop offset="1" stop-color="#E56F8C"/>
</linearGradient>
</defs>
</svg>
